<svg width="121" height="60" viewBox="0 0 121 60" fill="none" xmlns="http://www.w3.org/2000/svg">
<mask id="path-1-inside-1_68_991" fill="white">
<path d="M34.6387 60C34.4467 60 34.256 59.9986 34.0668 59.9957C34.064 59.9957 34.0611 59.9957 34.0583 59.9957C33.8449 59.9929 33.6315 59.9872 33.4195 59.9815L33.3342 59.9786C33.1236 59.9715 32.9102 59.9644 32.6968 59.953C32.6926 59.953 32.6826 59.9516 32.6783 59.9516C31.7864 59.9089 30.8859 59.8334 30.0124 59.7294L29.9896 59.7266C28.8615 59.5913 27.7647 59.4033 26.7176 59.1697C26.7162 59.1697 26.7148 59.1698 26.7133 59.1683C25.4131 58.8778 24.1654 58.509 23.0046 58.0718L22.9875 58.0661C20.1508 56.9952 17.7922 55.5084 15.9783 53.6443C15.9129 53.5773 15.8474 53.509 15.782 53.4406C15.7009 53.3537 15.6227 53.2683 15.5444 53.1829C15.4633 53.0931 15.3851 53.0006 15.3054 52.9094L15.2542 52.851C15.2101 52.7998 15.166 52.7485 15.1233 52.6972C14.9996 52.5477 14.8744 52.3868 14.7407 52.2102C14.7051 52.1618 14.6695 52.1134 14.634 52.0649L14.6041 52.0222C14.5116 51.8955 14.4206 51.7659 14.3309 51.6349L14.3096 51.6035C14.2769 51.5551 14.2442 51.5067 14.2114 51.4583C14.072 51.2461 13.9582 51.0666 13.8529 50.8901C13.8515 50.8872 13.8501 50.8858 13.8487 50.8829C13.8473 50.8815 13.8458 50.8787 13.8458 50.8772C13.8444 50.8744 13.843 50.873 13.8416 50.8701C13.8387 50.8644 13.8359 50.8587 13.833 50.8545C13.7164 50.6565 13.604 50.4628 13.4959 50.2706C13.4703 50.2236 13.4447 50.1766 13.4191 50.1296L13.3479 50C13.2853 49.8861 13.2227 49.7721 13.163 49.6596C13.1331 49.6027 13.1032 49.5457 13.0748 49.4888L12.9937 49.3293C12.9453 49.2367 12.8984 49.1427 12.8514 49.0516C12.8201 48.9889 12.7903 48.9262 12.7618 48.865L12.6821 48.6984C12.6409 48.6144 12.6011 48.5289 12.5612 48.4449C12.5299 48.378 12.5015 48.3124 12.4716 48.2455L12.4005 48.086C12.3635 48.0034 12.3265 47.9222 12.2909 47.8411C12.261 47.7713 12.2312 47.7015 12.2027 47.6317L12.1415 47.4836C12.1074 47.4024 12.0733 47.3213 12.0405 47.2401C12.0107 47.1675 11.9836 47.0948 11.9552 47.0222L11.9011 46.8841C11.8698 46.8043 11.8385 46.7246 11.8101 46.6448C11.7816 46.5679 11.7546 46.4925 11.7276 46.4155L11.6806 46.286C11.6522 46.2076 11.6251 46.1293 11.5981 46.0524C11.5697 45.9712 11.5441 45.8915 11.5184 45.8103L11.4786 45.6907C11.4544 45.6152 11.4288 45.5397 11.4061 45.4643C11.3805 45.3831 11.3563 45.3033 11.3335 45.2222L11.2979 45.104C11.2752 45.0299 11.2538 44.9544 11.2325 44.8804C11.2069 44.7892 11.1827 44.6981 11.1585 44.6084L11.1386 44.5343C11.1173 44.4574 11.0974 44.3791 11.0774 44.3022C11.0533 44.2054 11.0291 44.1085 11.0063 44.0117L10.9907 43.9476C10.9736 43.875 10.9551 43.8009 10.9394 43.7283C10.9167 43.6272 10.8953 43.5261 10.874 43.4264L10.8626 43.3737C10.847 43.3025 10.8327 43.2298 10.8185 43.1586C10.7972 43.0533 10.7787 42.9479 10.7588 42.8425L10.7517 42.8169C10.7374 42.7428 10.7246 42.6673 10.7118 42.5933C10.6933 42.485 10.6777 42.3797 10.6606 42.2729L10.6578 42.2586C10.6464 42.1831 10.635 42.1077 10.6236 42.0336C10.608 41.9254 10.5937 41.8186 10.5809 41.7103L10.5767 41.6804C10.5681 41.6135 10.5596 41.5466 10.5525 41.4811C10.5397 41.3728 10.5283 41.2632 10.5183 41.1549L10.5169 41.135C10.5112 41.0695 10.5041 41.0026 10.4984 40.9371C10.4885 40.826 10.4799 40.7149 10.4728 40.6052C10.4671 40.5355 10.4629 40.4657 10.4586 40.3973C10.4515 40.2848 10.4458 40.1737 10.4415 40.0627C10.4387 39.9957 10.4358 39.9302 10.433 39.8647C10.4287 39.7508 10.4259 39.6383 10.4245 39.5244C10.423 39.4617 10.423 39.399 10.4216 39.3364C10.4202 39.2224 10.4216 39.1071 10.4216 38.9932L10.4245 38.8194C10.4273 38.7012 10.4301 38.5844 10.4344 38.4691L10.4415 38.3082C10.4472 38.1885 10.4529 38.0704 10.46 37.9536L10.47 37.8069C10.4785 37.6844 10.4885 37.5634 10.4984 37.4452L10.5112 37.3127C10.524 37.186 10.5368 37.0635 10.5496 36.9425L10.5639 36.8214C10.5795 36.6961 10.5952 36.5722 10.6137 36.4483L10.6293 36.3443C10.6478 36.2162 10.6677 36.0894 10.6891 35.9641L10.7047 35.873C10.7275 35.742 10.7502 35.6138 10.7758 35.4856L10.7915 35.4087C10.8171 35.2791 10.8441 35.1481 10.874 35.0171L10.8868 34.9601C10.9181 34.8234 10.9494 34.6881 10.9821 34.5557L10.9892 34.5286C11.0262 34.3791 11.0618 34.2424 11.1002 34.1057C11.1016 34.1014 11.1045 34.0886 11.1059 34.0843C11.1443 33.9433 11.1841 33.8052 11.2268 33.667C11.2268 33.6642 11.2282 33.6628 11.2282 33.6599C11.2738 33.5104 11.3207 33.3623 11.3676 33.2156C11.3691 33.2113 11.3705 33.2056 11.3733 33.1999C11.4217 33.0533 11.4687 32.9151 11.5184 32.777C11.5213 32.7713 11.5227 32.7656 11.5256 32.7585C11.5739 32.6246 11.6251 32.4865 11.6778 32.3483C11.6792 32.3441 11.6863 32.327 11.6877 32.3227C11.7361 32.1974 11.7902 32.0635 11.8442 31.9311C11.8456 31.9282 11.8499 31.9154 11.8513 31.9126C11.9068 31.7801 11.9623 31.6505 12.0178 31.5238C12.0192 31.5224 12.0235 31.5095 12.0249 31.5081C12.0832 31.3757 12.1415 31.2504 12.1999 31.1279C12.2013 31.1265 12.207 31.1122 12.2084 31.1108C12.271 30.9798 12.3293 30.8602 12.3891 30.742L12.4033 30.7149C12.4631 30.5953 12.5242 30.4799 12.5854 30.366L12.6053 30.329C12.6423 30.2606 12.6793 30.1908 12.7177 30.121C12.7063 30.1125 12.6949 30.1054 12.6836 30.0968L12.6323 30.0612C12.4631 29.943 12.2881 29.8134 12.1145 29.681L12.0647 29.6426C11.8841 29.503 11.7119 29.3663 11.5497 29.231C11.5469 29.2281 11.5355 29.2182 11.5312 29.2153C11.1827 28.9234 10.8427 28.6144 10.5198 28.2954L10.5055 28.2825C10.3491 28.1273 10.1926 27.9664 10.0375 27.7998L10.0119 27.7713C9.99625 27.7542 9.9806 27.7385 9.96495 27.7214C9.40018 27.7428 8.82402 27.7414 8.24217 27.7157C6.43973 27.6374 4.90188 27.3683 3.67417 26.9168C3.66848 26.914 3.6571 26.9111 3.64856 26.9069C1.50896 26.1122 0.81757 24.9644 0.612714 24.1398C0.406435 23.3082 0.622672 22.4566 1.20736 21.8029C2.26436 20.6209 3.36404 19.9829 3.68555 19.812C3.87618 19.6867 4.72264 19.1171 5.68859 18.237C5.65444 17.9009 5.63026 17.5619 5.61603 17.2244L5.61034 17.0906C5.60323 16.8841 5.60039 16.7089 5.60039 16.5423C5.60039 16.538 5.60039 16.5323 5.60039 16.5281C5.60039 13.4976 6.42692 10.534 7.99179 7.95642C8.06008 7.84249 8.13121 7.72999 8.20234 7.61891C8.3446 7.39675 8.4954 7.17459 8.64762 6.95956C8.87666 6.63771 9.11992 6.32014 9.37173 6.01396C9.53959 5.81031 9.71315 5.60951 9.89098 5.41441C10.157 5.12247 10.4358 4.83623 10.7204 4.56423C10.911 4.38194 11.1087 4.20251 11.3065 4.03019C11.4061 3.94332 11.5071 3.85787 11.6081 3.77385C12.0149 3.43777 12.4417 3.11735 12.8785 2.82256C13.3166 2.52635 13.7747 2.24722 14.2399 1.99516C14.5913 1.80433 14.9526 1.62489 15.3154 1.4597C15.5587 1.35004 15.8076 1.24466 16.0566 1.1464C17.9842 0.38593 20.0214 0 22.1112 0C22.2833 0 22.454 0.00284839 22.6233 0.00854477L22.7727 0.0142407C22.9007 0.0199371 23.0288 0.025634 23.1568 0.0341785L23.2977 0.0427228C23.4669 0.0541155 23.6377 0.0683564 23.8055 0.0854455C23.8112 0.0854455 23.8183 0.0868697 23.8254 0.0882938C23.989 0.105383 24.1498 0.12532 24.3106 0.146682L24.4386 0.165195C24.5737 0.183708 24.7089 0.20507 24.8426 0.227855L24.9507 0.246368C25.1712 0.284819 25.4031 0.33039 25.635 0.380233C25.7431 0.403019 25.8498 0.427228 25.9565 0.454286L26.0461 0.475648C26.1941 0.512674 26.342 0.549701 26.4886 0.591L26.5483 0.606664C26.8755 0.697807 27.2127 0.80319 27.5441 0.918542L27.5954 0.937055C28.0919 1.11222 28.5855 1.31302 29.0621 1.53517C29.0635 1.5366 29.0763 1.5423 29.0777 1.5423C29.4576 1.71888 29.836 1.91398 30.2016 2.12048C30.4008 2.23298 30.5999 2.35118 30.7948 2.47223C30.7991 2.47508 30.8033 2.47793 30.8076 2.47935C31.3781 2.83395 31.94 3.2327 32.4706 3.66135L32.4977 3.68414C32.6641 3.818 32.8348 3.96326 33.0013 4.10852C33.0041 4.11136 33.0141 4.11991 33.0169 4.12276C33.3541 4.41897 33.6827 4.73369 33.9943 5.05696C34.1508 5.21931 34.3001 5.38023 34.4481 5.54828L34.4851 5.58957C34.6287 5.75335 34.771 5.91854 34.9033 6.08231L34.9218 6.1051C35.2006 6.44973 35.4667 6.80433 35.7156 7.16605L35.7469 7.2102C35.8636 7.38109 35.9802 7.5591 36.094 7.73996L36.1339 7.80547C36.2534 7.9963 36.3601 8.17573 36.4611 8.35374L36.4796 8.3865C36.5948 8.59015 36.6958 8.7767 36.7911 8.96041C36.7925 8.96326 36.794 8.96611 36.7954 8.96753C36.8921 9.15551 36.9846 9.34492 37.0813 9.55283L37.1169 9.62973C37.2037 9.81771 37.2862 10.0085 37.3658 10.1994L37.4014 10.2848C37.4882 10.497 37.5622 10.6907 37.6305 10.8787L37.6447 10.9185C37.7158 11.1165 37.7841 11.3173 37.8481 11.5181L37.8652 11.5694C37.9249 11.763 37.9833 11.961 38.043 12.1774L38.0715 12.2828C38.1255 12.4836 38.1739 12.6873 38.2194 12.8866L38.2408 12.9863C38.2905 13.2156 38.3318 13.4221 38.3674 13.6201L38.3731 13.6585C38.4072 13.8536 38.4385 14.0601 38.4698 14.2823L38.4812 14.3691C38.5068 14.5671 38.5295 14.7736 38.5509 14.9986L38.5608 15.1182C38.5793 15.3361 38.5936 15.5497 38.6021 15.7533L38.6064 15.8545C38.6163 16.1022 38.6206 16.323 38.6206 16.5281C38.6206 19.3649 37.9192 22.082 36.5735 24.5101C36.6218 24.513 36.6716 24.5172 36.7214 24.5215L37.1297 24.5557C37.2378 24.5657 37.3459 24.5742 37.4555 24.5856L37.5195 24.5913C37.6091 24.5998 37.7002 24.6084 37.7912 24.6183L37.8894 24.6283C37.9804 24.6383 38.0729 24.6468 38.1668 24.6568L38.2336 24.6639C38.3475 24.6767 38.4613 24.6895 38.5765 24.7024L38.6718 24.7138C38.76 24.7237 38.8496 24.7351 38.9393 24.7465L39.0502 24.7608C39.1555 24.7736 39.2636 24.7878 39.3732 24.802L39.3959 24.8049C39.3988 24.8049 39.4087 24.8063 39.4116 24.8063C39.5325 24.822 39.6534 24.8391 39.7758 24.8562L40.2779 24.9288C40.4031 24.9473 40.5283 24.9672 40.6563 24.9872L40.6933 24.9929C40.8128 25.0114 40.9295 25.0313 41.0447 25.0498L41.1671 25.0698C41.2652 25.0869 41.3634 25.104 41.463 25.121L41.5711 25.1396C41.7034 25.1638 41.8357 25.1866 41.968 25.2108L42.0477 25.225C42.1586 25.2464 42.2682 25.2663 42.3791 25.2877L42.5057 25.3119C42.6139 25.3332 42.722 25.3546 42.8301 25.376L42.9254 25.3959C43.062 25.4244 43.2 25.4529 43.3394 25.4828L43.4418 25.5056C43.5514 25.5298 43.6609 25.5525 43.769 25.5782L43.8985 25.6067C44.0208 25.6337 44.1446 25.6622 44.2669 25.6921L44.3267 25.7064C44.4718 25.7405 44.6169 25.7761 44.7606 25.8103L44.8744 25.8388C44.9868 25.8673 45.0977 25.8943 45.2101 25.9228L45.3382 25.9556C45.4847 25.994 45.6326 26.0325 45.7806 26.0723C45.9769 26.125 46.1718 26.1735 46.3667 26.219L46.536 26.2575C46.684 26.2917 46.8319 26.323 46.977 26.3529L47.1306 26.3842C47.3156 26.4212 47.4991 26.454 47.6812 26.4853L47.8405 26.511C47.9728 26.5323 48.1037 26.5523 48.2346 26.5708C48.3057 26.5807 48.3783 26.5907 48.4494 26.5993C48.5718 26.6149 48.6927 26.6292 48.8122 26.642C48.8975 26.652 48.9857 26.6605 49.0711 26.669C49.2062 26.6819 49.34 26.6947 49.4723 26.7046C49.5619 26.7118 49.6515 26.7175 49.7411 26.7232C49.8208 26.7289 49.8976 26.7331 49.9759 26.736C50.0726 26.7402 50.1708 26.7459 50.2675 26.7488L50.4098 26.7531C50.6288 26.7588 50.8408 26.7616 51.0428 26.7602H51.1467C51.2662 26.7588 51.3857 26.7573 51.5038 26.7531L51.5649 26.7516C51.9505 26.7388 52.3317 26.716 52.7016 26.6819C55.6805 26.4056 57.9965 25.46 59.1702 24.6668C59.2171 24.6354 59.2612 24.6041 59.3053 24.5728L59.331 24.5543C59.3694 24.5272 59.4035 24.5016 59.4362 24.4759L59.4803 24.4403C59.4818 24.4389 59.4931 24.4304 59.4946 24.4289C59.5131 24.4147 59.5301 24.4005 59.5472 24.3862C59.5771 24.3606 59.6084 24.3335 59.6382 24.3065C60.0935 23.8778 60.7166 23.7197 61.307 23.8821C61.9841 24.0686 62.8633 24.6411 63.66 27.438C63.7254 27.6688 63.7894 27.9109 63.8492 28.1586C63.9103 28.4093 63.9687 28.6699 64.0227 28.9348C64.1067 29.3406 64.1821 29.7664 64.2503 30.198C64.32 30.6437 64.3798 31.1051 64.4296 31.5694C64.4637 31.8869 64.4936 32.2116 64.5178 32.5363C64.5832 33.3865 64.6145 34.2523 64.6117 35.1125C64.6103 35.4714 64.6031 35.8359 64.5903 36.1934C64.5704 36.7502 64.5349 37.3099 64.4865 37.8582C64.4524 38.237 64.4111 38.6172 64.3641 38.9889C63.99 41.9268 63.209 44.6169 62.041 46.9823C61.2785 48.5275 60.3438 49.9416 59.2641 51.182C59.1417 51.323 59.0066 51.4711 58.853 51.6349C58.8217 51.669 58.7875 51.7032 58.7548 51.7374L58.7192 51.7744C58.6211 51.877 58.5201 51.9781 58.4162 52.0792C58.3636 52.1304 58.3109 52.1817 58.2583 52.2316C58.1545 52.3298 58.0506 52.4267 57.9439 52.5235L57.9027 52.5605C57.8657 52.5947 57.8287 52.6289 57.7903 52.6616C57.6537 52.7827 57.5157 52.9009 57.3734 53.0191L57.3108 53.0718C57.1515 53.2028 56.9879 53.3338 56.8072 53.4734C56.7717 53.5004 56.7347 53.5289 56.6977 53.556L56.6522 53.5901C56.5313 53.6813 56.4089 53.7739 56.2837 53.8636C56.2211 53.9091 56.1571 53.9547 56.0931 54.0003C55.9736 54.0843 55.8527 54.1683 55.7303 54.2509L55.6848 54.2823C55.6364 54.315 55.5881 54.3478 55.5397 54.3805C55.396 54.4759 55.2509 54.5699 55.103 54.6625L55.0603 54.6895C55.0318 54.7081 55.0048 54.7251 54.9763 54.7437C54.7886 54.8604 54.5979 54.9758 54.4045 55.0897C54.366 55.1125 54.3276 55.1339 54.2892 55.1566L54.2323 55.1894C54.0929 55.2706 53.9521 55.3503 53.8098 55.4286C53.7401 55.4671 53.6704 55.5056 53.5993 55.544L53.585 55.5525C53.4542 55.6238 53.3233 55.6935 53.191 55.7619L53.1696 55.7733C53.0985 55.8103 53.0288 55.8473 52.9577 55.8829C52.814 55.9556 52.6689 56.0282 52.5223 56.0994L52.4555 56.1322C52.4128 56.1535 52.3701 56.1749 52.326 56.1948C52.1212 56.2931 51.9135 56.3899 51.7029 56.4853C51.6574 56.5067 51.6119 56.5266 51.5663 56.5466L51.4966 56.5779C51.3501 56.6434 51.2007 56.7089 51.0499 56.7744C50.9632 56.8114 50.875 56.8485 50.7853 56.8855C50.6473 56.9439 50.5136 56.998 50.3799 57.0521C50.2846 57.0906 50.1893 57.129 50.0939 57.166C49.9574 57.2202 49.818 57.2729 49.68 57.3255L49.606 57.354C49.5406 57.3797 49.4751 57.4039 49.4082 57.4281C49.192 57.5078 48.9743 57.5862 48.7553 57.6631C48.6998 57.683 48.6429 57.7015 48.586 57.7214L48.4935 57.7528C48.3484 57.8026 48.2047 57.851 48.0582 57.898C47.9558 57.9308 47.8533 57.9635 47.7523 57.9963L47.7281 58.0034C47.603 58.0433 47.4792 58.0817 47.3526 58.1202C47.2345 58.1558 47.1178 58.1914 47.0012 58.2256C46.8788 58.2612 46.7565 58.2968 46.6327 58.3324L46.5659 58.3509C46.4691 58.378 46.3724 58.4064 46.2757 58.4335C46.1647 58.4648 46.0523 58.4947 45.9399 58.5232L45.8787 58.5389C45.6654 58.5958 45.452 58.65 45.2372 58.7041L45.1546 58.7254C45.0664 58.7468 44.9782 58.7696 44.8886 58.7909C44.7634 58.8208 44.6397 58.8493 44.5145 58.8778L44.4775 58.8864C44.3708 58.9106 44.2641 58.9348 44.1574 58.959C44.0166 58.9903 43.8743 59.0202 43.732 59.0516C43.6296 59.0729 43.53 59.0928 43.429 59.1142C43.2811 59.1441 43.1317 59.174 42.9837 59.2025C42.9325 59.2125 42.8799 59.2224 42.8287 59.231L42.7433 59.2467C42.3948 59.3122 42.0491 59.372 41.7162 59.4261L41.591 59.4474C41.4217 59.4745 41.2538 59.5001 41.0846 59.5243L40.8456 59.56C40.6791 59.5842 40.5112 59.6069 40.342 59.6283L40.1129 59.6582C39.9379 59.681 39.7615 59.7024 39.5851 59.7223L39.4528 59.7365C38.8383 59.8049 38.2123 59.8604 37.5949 59.9032L37.4626 59.9117C37.2705 59.9245 37.0771 59.9359 36.885 59.9459L36.7328 59.953C36.535 59.963 36.3359 59.9715 36.1367 59.9786L36.0798 59.9801C35.5975 59.9929 35.1153 60 34.6387 60ZM34.1038 57.149C34.7226 57.1575 35.3543 57.1518 35.9831 57.1304L36.0329 57.129C36.2192 57.1219 36.4056 57.1148 36.5905 57.1048L36.7314 57.0977C36.912 57.0877 37.0927 57.0778 37.2734 57.0664L37.3971 57.0578C37.9762 57.0179 38.5623 56.9652 39.137 56.9012L39.2608 56.8883C39.4258 56.8698 39.5908 56.8499 39.7558 56.8285L39.9706 56.8015C40.1286 56.7801 40.285 56.7602 40.4415 56.7374L40.6649 56.7046C40.8228 56.6819 40.9807 56.6576 41.1386 56.632L41.2567 56.6121C41.5682 56.5608 41.8912 56.5053 42.217 56.444L42.4431 56.4013C42.584 56.3743 42.7234 56.3458 42.8614 56.3173C42.9553 56.2988 43.0506 56.2788 43.1445 56.2589C43.2768 56.2304 43.4091 56.2019 43.5414 56.1735C43.6424 56.1507 43.742 56.1279 43.8402 56.1051L43.8771 56.0965C43.9924 56.0695 44.109 56.0439 44.2243 56.0154C44.3039 55.9969 44.3836 55.9769 44.4647 55.9556L44.55 55.9342C44.7506 55.8844 44.9498 55.8331 45.1475 55.7804L45.2101 55.7633C45.3126 55.7363 45.4164 55.7092 45.5188 55.6807C45.607 55.6565 45.6938 55.6309 45.782 55.6067L45.8503 55.5867C45.9655 55.554 46.0793 55.5212 46.1917 55.487C46.3013 55.4543 46.4094 55.4215 46.5175 55.3888C46.6342 55.3532 46.7494 55.3161 46.866 55.2805L46.8902 55.2734C46.9841 55.2435 47.0794 55.2136 47.1733 55.1837C47.3071 55.1396 47.4408 55.094 47.5745 55.0498L47.6784 55.0142C47.7253 54.9986 47.7708 54.9829 47.8178 54.9672C48.0212 54.896 48.2218 54.8248 48.421 54.7508C48.4779 54.7294 48.5348 54.7081 48.5902 54.6867L48.6699 54.6568C48.798 54.6084 48.926 54.56 49.0512 54.5101C49.1394 54.4759 49.2262 54.4403 49.3129 54.4062C49.4353 54.3563 49.5576 54.3065 49.6785 54.2566C49.7667 54.2196 49.8478 54.1868 49.9275 54.1527C50.0655 54.0943 50.2021 54.0345 50.3372 53.9732L50.5264 53.8892C50.7156 53.8038 50.9048 53.714 51.0926 53.6243L51.269 53.5375C51.4013 53.4734 51.5336 53.4079 51.6631 53.3409C51.7271 53.3082 51.7897 53.2754 51.8523 53.2427L51.8736 53.2313C51.9931 53.1686 52.1112 53.1059 52.2279 53.0433L52.2421 53.0362C52.3047 53.002 52.3673 52.9678 52.4299 52.9336C52.5579 52.8624 52.6831 52.7912 52.8083 52.7186L52.9619 52.6303C53.1341 52.5292 53.3034 52.4267 53.4698 52.3227L53.5822 52.2501C53.7102 52.1689 53.8397 52.0863 53.9649 52.0023C54.0047 51.9752 54.0445 51.9482 54.0844 51.9211L54.1327 51.8884C54.2394 51.8157 54.3447 51.7431 54.4486 51.669C54.504 51.6292 54.5595 51.5907 54.6136 51.5508C54.7217 51.4725 54.8284 51.3928 54.9337 51.313L54.9906 51.2703C55.0162 51.2518 55.0418 51.2318 55.066 51.2133C55.2225 51.0923 55.3619 50.9812 55.4956 50.8715L55.5511 50.8246C55.6706 50.7249 55.7872 50.6252 55.9025 50.5226C55.9309 50.4984 55.9579 50.4728 55.985 50.4486L56.0305 50.4073C56.1187 50.3275 56.2069 50.2464 56.2923 50.1638C56.3364 50.1225 56.3805 50.0798 56.4231 50.037C56.5085 49.9544 56.591 49.8704 56.6721 49.785L56.7176 49.7394C56.739 49.7166 56.7617 49.6952 56.7816 49.6725C56.9097 49.5372 57.0178 49.4175 57.116 49.3065C58.035 48.2498 58.833 47.0421 59.4874 45.7163C60.5146 43.6343 61.206 41.2489 61.5388 38.6257C61.5815 38.2882 61.6185 37.9436 61.6498 37.6004C61.6939 37.102 61.7266 36.5936 61.7451 36.0866C61.7565 35.7605 61.7636 35.4286 61.765 35.0997C61.7679 34.315 61.7394 33.5246 61.6797 32.7499C61.6569 32.4537 61.6299 32.1589 61.5986 31.8698C61.5531 31.4497 61.499 31.0325 61.4364 30.6309C61.3767 30.2449 61.3084 29.8661 61.2344 29.5058C61.186 29.2737 61.1362 29.0459 61.0822 28.828C61.031 28.6158 60.9769 28.4107 60.9214 28.2156C60.7948 27.7727 60.6725 27.4238 60.5644 27.1561C58.6652 28.3723 55.847 29.2509 52.9619 29.5187C52.5351 29.5585 52.0956 29.5856 51.6545 29.5998L51.5834 29.6027C51.4454 29.6069 51.3089 29.6098 51.1709 29.6112H51.0514C50.8209 29.6112 50.5762 29.6098 50.3287 29.6027L50.2803 29.6013C50.2405 29.5998 50.2021 29.5998 50.1622 29.5984C50.0527 29.5941 49.9403 29.5884 49.8293 29.5827C49.7397 29.5785 49.6487 29.5728 49.559 29.5671C49.458 29.5614 49.3556 29.5543 49.2518 29.5457C49.0981 29.5343 48.9459 29.5201 48.7923 29.5058C48.6941 29.4959 48.5945 29.4859 48.4949 29.4745C48.3569 29.4588 48.2175 29.4432 48.0795 29.4247C47.9984 29.4147 47.9159 29.4033 47.8348 29.3919C47.6855 29.3705 47.5361 29.3478 47.3839 29.3236L47.327 29.315C47.2843 29.3079 47.243 29.3022 47.2004 29.2951C46.9927 29.2595 46.7835 29.221 46.573 29.1797C46.5331 29.1712 46.4919 29.1641 46.4521 29.1555L46.398 29.1441C46.2316 29.1099 46.0637 29.0729 45.8958 29.0345L45.8787 29.0302C45.8204 29.0174 45.7607 29.0031 45.7023 28.9889C45.4505 28.9291 45.24 28.8764 45.0366 28.8223C44.8972 28.7852 44.7577 28.7482 44.6197 28.7126L44.5017 28.6827C44.395 28.6557 44.2911 28.6286 44.1858 28.603L44.0777 28.5759C43.9412 28.5417 43.8046 28.509 43.6709 28.4776L43.6125 28.4634C43.4973 28.4363 43.3806 28.4093 43.2654 28.3836L43.1445 28.3566C43.0421 28.3338 42.9396 28.311 42.8372 28.2882L42.7405 28.2669C42.6096 28.2384 42.4801 28.2113 42.3507 28.1857L42.2611 28.1672C42.16 28.1473 42.0576 28.1259 41.9566 28.106L41.8371 28.0832C41.7318 28.0632 41.628 28.0433 41.5241 28.0234L41.4502 28.0091C41.3236 27.9863 41.1984 27.9635 41.0746 27.9408L40.975 27.9237C40.8783 27.9066 40.7858 27.8909 40.6933 27.8752L40.5781 27.8553C40.4686 27.8368 40.359 27.8197 40.2509 27.8026C40.2495 27.8026 40.2353 27.7998 40.2338 27.7998L40.2111 27.7955C40.0916 27.777 39.9721 27.7585 39.854 27.74L39.3803 27.6716C39.265 27.6559 39.1498 27.6388 39.036 27.6246L38.9962 27.6189C38.898 27.6061 38.7956 27.5933 38.6931 27.5805L38.5893 27.5676C38.5054 27.5577 38.4214 27.5477 38.3375 27.5377L38.2464 27.5278C38.1383 27.515 38.0302 27.5036 37.9235 27.4922L37.8609 27.485C37.7699 27.4751 37.6831 27.4665 37.5963 27.458L37.5053 27.4494C37.4171 27.4409 37.3331 27.4324 37.2478 27.4238L37.1894 27.4181C37.0842 27.4081 36.9817 27.3996 36.8807 27.3911L36.4952 27.3597C36.407 27.3526 36.3188 27.3455 36.2306 27.3398L36.3103 25.9171L36.2093 27.3369C36.1125 27.3298 36.0172 27.3241 35.9219 27.317L35.5805 27.2956C35.3927 27.2842 35.2149 27.2757 35.0427 27.2672L34.7482 27.2543C34.579 27.2472 34.4168 27.243 34.2603 27.2387H34.2446C34.1479 27.2358 34.064 27.2344 33.9815 27.233C33.4423 27.223 32.9558 26.9083 32.7239 26.4212C32.492 25.9342 32.5546 25.3574 32.8861 24.9331C34.7739 22.5121 35.7711 19.6041 35.7711 16.5252C35.7711 16.3572 35.7668 16.1749 35.7583 15.9655L35.7555 15.8801C35.7483 15.7135 35.7355 15.5369 35.7213 15.3546L35.7128 15.2563C35.6957 15.0684 35.6772 14.8975 35.6559 14.7337L35.6459 14.6611C35.6203 14.4759 35.5947 14.305 35.5662 14.1398L35.5606 14.1042C35.5335 13.9533 35.4994 13.7824 35.4581 13.5901L35.4396 13.5061C35.4026 13.3424 35.3614 13.1757 35.3173 13.0077L35.2945 12.9208C35.2447 12.7385 35.1978 12.5748 35.1494 12.4195L35.1352 12.374C35.0826 12.2088 35.0271 12.0436 34.9688 11.8827L34.9574 11.8513C34.9005 11.6932 34.8379 11.5337 34.7667 11.3586L34.7369 11.2874C34.6714 11.1279 34.6017 10.9698 34.5306 10.816L34.5007 10.7519C34.421 10.5796 34.3456 10.4258 34.2717 10.282C34.2688 10.2763 34.266 10.2706 34.2631 10.2663C34.1849 10.1125 34.0995 9.95728 34.0056 9.79066L33.9886 9.76075C33.9046 9.61264 33.8164 9.46454 33.7169 9.30647L33.6827 9.25235C33.5874 9.09997 33.4907 8.95329 33.3953 8.81373L33.3669 8.77385C33.162 8.47622 32.9415 8.18285 32.7139 7.90088L32.6983 7.88095C32.5859 7.74423 32.4692 7.60609 32.3483 7.46938L32.3199 7.43663C32.1947 7.29564 32.0709 7.16178 31.95 7.03646C31.6854 6.76161 31.4122 6.501 31.132 6.2532C31.1291 6.25036 31.1206 6.24324 31.1177 6.24039C30.984 6.12219 30.8418 6.00256 30.6981 5.88579L30.6782 5.87012C30.2414 5.51695 29.7762 5.18656 29.2982 4.89034C29.2968 4.88892 29.2954 4.88892 29.294 4.8875C29.1318 4.78781 28.9668 4.68955 28.8032 4.59698C28.5001 4.42609 28.1872 4.26517 27.8713 4.11848C27.4659 3.92908 27.0562 3.76246 26.6451 3.6172L26.6066 3.60296C26.3307 3.50612 26.0518 3.41925 25.7787 3.34235L25.7332 3.32954C25.6108 3.29536 25.4899 3.26403 25.3676 3.23412L25.295 3.21703C25.204 3.19567 25.1158 3.17573 25.0261 3.1558C24.8327 3.11307 24.642 3.07605 24.4599 3.04472L24.3703 3.03048C24.2608 3.01196 24.1498 2.99487 24.0374 2.97921L23.9321 2.96497C23.797 2.94645 23.6604 2.93079 23.5239 2.91655C23.5182 2.91655 23.5125 2.91512 23.5054 2.91512C23.3688 2.90088 23.2308 2.88949 23.0928 2.87952L22.9747 2.8724C22.8695 2.86528 22.7628 2.86101 22.6561 2.85674L22.5323 2.85246C22.3915 2.84819 22.2492 2.84534 22.1055 2.84534C20.3756 2.84534 18.6898 3.16434 17.0951 3.79379C16.8888 3.87496 16.6825 3.96183 16.4819 4.05298C16.1818 4.18827 15.883 4.3378 15.5928 4.49587C15.2087 4.70521 14.8289 4.93592 14.4661 5.18086C14.1048 5.4258 13.7505 5.69069 13.4134 5.96838C13.3294 6.03817 13.2455 6.10795 13.163 6.18057C12.998 6.32298 12.8344 6.47251 12.6764 6.62204C12.4403 6.84705 12.2084 7.08488 11.9893 7.32697C11.8428 7.4879 11.6991 7.65451 11.5597 7.82398C11.3506 8.07747 11.15 8.3395 10.9608 8.60723C10.8342 8.78525 10.7104 8.96896 10.5923 9.15266C10.534 9.24523 10.4757 9.33779 10.4173 9.43178C9.12561 11.5608 8.44134 14.0088 8.43992 16.5124C8.43992 16.5167 8.43992 16.5209 8.43992 16.5252C8.43992 16.6819 8.44418 16.8371 8.44845 16.9923L8.45272 17.1005C8.47264 17.5947 8.51958 18.0846 8.59071 18.5617C8.65758 19.0117 8.50678 19.466 8.18385 19.785C6.65739 21.2945 5.21344 22.2088 5.15226 22.2472C5.11385 22.2714 5.0726 22.2942 5.03134 22.3156C5.02992 22.317 4.23752 22.73 3.45224 23.5574C3.60304 23.7169 3.95585 23.9846 4.63728 24.2367C4.64297 24.2381 4.6515 24.2424 4.65862 24.2452C5.59612 24.5884 6.87504 24.8035 8.35883 24.869C9.07724 24.9003 9.7857 24.8903 10.4614 24.8391C10.9167 24.8049 11.3605 24.9915 11.655 25.3404L11.7105 25.4059C11.7119 25.4087 11.7162 25.413 11.719 25.4158C11.84 25.5568 11.9623 25.6935 12.0875 25.8302L12.1117 25.8559C12.2397 25.9926 12.3692 26.1279 12.4972 26.2532L12.51 26.266C12.7789 26.5309 13.0606 26.7872 13.3479 27.0279C13.3508 27.0308 13.3636 27.0422 13.3664 27.0436C13.4959 27.1518 13.6396 27.2657 13.7889 27.3811L13.8345 27.4153C13.9767 27.5235 14.1218 27.6303 14.2641 27.73L14.3053 27.7585C14.6084 27.9707 14.9242 28.1715 15.24 28.3552L15.3623 28.4249C15.708 28.6215 15.9556 28.9547 16.0452 29.3421C16.1348 29.7294 16.058 30.1381 15.8346 30.4671L15.7749 30.5568C15.7251 30.6309 15.6739 30.7092 15.6227 30.7904L15.5985 30.8288C15.5487 30.9071 15.4975 30.9912 15.4463 31.0766L15.4278 31.1065C15.3751 31.1948 15.3239 31.2817 15.2741 31.3714L15.2571 31.4013C15.2059 31.4925 15.1546 31.585 15.1048 31.6776L15.0906 31.7046C15.0394 31.8001 14.9896 31.8955 14.9398 31.9937L14.9256 32.0222C14.8772 32.1176 14.8289 32.2187 14.7805 32.3199C14.7805 32.3213 14.7734 32.3341 14.7734 32.3355C14.7207 32.4452 14.6738 32.5506 14.6268 32.6559C14.6268 32.6574 14.6212 32.6688 14.6197 32.6702C14.5699 32.7827 14.523 32.8909 14.4775 33.002C14.4761 33.0048 14.4718 33.0162 14.4704 33.0177C14.4248 33.1287 14.3793 33.2412 14.3352 33.3566C14.3338 33.3609 14.3309 33.3694 14.3281 33.3737C14.2854 33.4862 14.2413 33.603 14.1986 33.7212C14.1972 33.724 14.1958 33.7297 14.193 33.7354C14.1503 33.8536 14.109 33.9732 14.0692 34.0943C14.0678 34.0971 14.0663 34.1028 14.0649 34.1071C14.0237 34.2338 13.9853 34.3549 13.9483 34.4774C13.9468 34.4802 13.9468 34.4831 13.9454 34.4845C13.9099 34.6012 13.8771 34.718 13.8444 34.8362C13.843 34.8391 13.8401 34.8533 13.8387 34.8562C13.8074 34.9687 13.7775 35.0854 13.7477 35.2036L13.742 35.2264C13.7107 35.3489 13.6851 35.4628 13.6595 35.5782L13.6495 35.6238C13.6239 35.7377 13.6011 35.8488 13.5784 35.9613L13.5642 36.0282C13.5442 36.1336 13.5243 36.2432 13.5044 36.3543L13.4916 36.4298C13.4731 36.538 13.456 36.6463 13.4404 36.7545L13.4276 36.8414C13.4119 36.9482 13.3991 37.055 13.3849 37.1604L13.3721 37.2643C13.3607 37.3668 13.3493 37.4722 13.3394 37.5762L13.328 37.6901C13.3195 37.7927 13.3109 37.8952 13.3038 37.9991L13.2953 38.1259C13.2896 38.227 13.2839 38.3281 13.2796 38.4292L13.2739 38.5659C13.2697 38.6656 13.2668 38.7653 13.2654 38.865L13.264 39.0145C13.2626 39.1114 13.2626 39.2096 13.264 39.3079C13.264 39.362 13.2654 39.4147 13.2654 39.4688C13.2668 39.5656 13.2697 39.6625 13.2725 39.7593C13.2739 39.8163 13.2768 39.8733 13.2796 39.9302C13.2839 40.0242 13.2882 40.121 13.2939 40.2179C13.2967 40.2777 13.301 40.3361 13.3052 40.3959C13.3124 40.4913 13.3195 40.5853 13.328 40.6807C13.3323 40.7363 13.338 40.7932 13.3437 40.8502L13.3451 40.8687C13.3536 40.9613 13.3636 41.0553 13.375 41.1492C13.3821 41.2062 13.3892 41.2617 13.3949 41.3187L13.3991 41.3486C13.4105 41.4398 13.4233 41.5338 13.4361 41.6263C13.4447 41.6904 13.4546 41.7531 13.4646 41.8171L13.4674 41.8314C13.4816 41.924 13.4959 42.0151 13.5115 42.1077C13.5215 42.1703 13.5343 42.233 13.5457 42.2971L13.5499 42.3227C13.567 42.4138 13.5827 42.505 13.6011 42.5961C13.6125 42.6559 13.6253 42.7157 13.6381 42.777L13.6467 42.8197C13.6666 42.9165 13.6851 43.0034 13.705 43.0903C13.7192 43.1501 13.7334 43.2113 13.7477 43.2726L13.7633 43.3395C13.7832 43.4221 13.8032 43.5061 13.8245 43.5901C13.8416 43.6542 13.8586 43.7197 13.8757 43.7838L13.897 43.8636C13.917 43.9405 13.9383 44.0174 13.9596 44.0943C13.9767 44.1569 13.9952 44.2182 14.0137 44.2808L14.0507 44.4033C14.0706 44.4702 14.0905 44.5386 14.1119 44.6055C14.1318 44.6668 14.1517 44.7294 14.173 44.7921L14.2143 44.9188C14.2356 44.9858 14.2584 45.0541 14.2812 45.121C14.3025 45.1851 14.3267 45.2492 14.3494 45.3147L14.3992 45.4529C14.422 45.5155 14.4433 45.5782 14.4675 45.6423C14.4917 45.7078 14.5187 45.7747 14.5443 45.8416L14.6012 45.9897C14.624 46.0496 14.6468 46.1079 14.6709 46.1678C14.698 46.2361 14.7264 46.303 14.7549 46.3714L14.8217 46.5309C14.8445 46.5864 14.8687 46.6434 14.8929 46.7004C14.9228 46.7687 14.954 46.8371 14.9839 46.9054L15.0607 47.0778C15.0849 47.1304 15.1077 47.1831 15.1319 47.2373C15.1646 47.307 15.1987 47.3782 15.2329 47.4494L15.3197 47.6303C15.3424 47.6787 15.3666 47.7286 15.3908 47.777C15.4292 47.8553 15.4705 47.9336 15.5117 48.0134L15.6028 48.19C15.6255 48.2341 15.6469 48.2768 15.6696 48.321C15.7223 48.4207 15.7763 48.5204 15.8318 48.62L15.9143 48.771C15.9328 48.8038 15.9499 48.8379 15.9684 48.8707C16.068 49.0473 16.1704 49.2253 16.2757 49.4033C16.2785 49.409 16.287 49.4218 16.2913 49.4304C16.3724 49.5671 16.4634 49.7109 16.5772 49.8832C16.6014 49.9202 16.627 49.9573 16.6526 49.9943L16.6754 50.0271C16.7465 50.131 16.8191 50.235 16.8945 50.3375L16.9301 50.3859C16.9542 50.4201 16.9784 50.4543 17.004 50.487C17.1136 50.6323 17.2146 50.7619 17.3127 50.8801C17.3412 50.9143 17.3696 50.947 17.3981 50.9812L17.4607 51.0538C17.5233 51.1279 17.5873 51.2019 17.6527 51.2746C17.7168 51.3458 17.7808 51.4156 17.8462 51.4853C17.8974 51.5409 17.9515 51.5964 18.0055 51.652C19.5263 53.2142 21.5379 54.4745 23.9834 55.3973L23.999 55.403C25.0332 55.7918 26.1528 56.1236 27.3251 56.3842H27.3265C28.2811 56.5978 29.2854 56.7673 30.3097 56.8912L30.3424 56.8955C31.1462 56.9923 31.9784 57.0607 32.8135 57.1005C32.8178 57.1005 32.8277 57.102 32.832 57.102C33.0184 57.1105 33.2175 57.1191 33.4153 57.1247L33.4949 57.1276C33.6898 57.1333 33.8876 57.1376 34.0853 57.1404C34.0981 57.149 34.101 57.149 34.1038 57.149Z"/>
</mask>
<path d="M34.6387 60C34.4467 60 34.256 59.9986 34.0668 59.9957C34.064 59.9957 34.0611 59.9957 34.0583 59.9957C33.8449 59.9929 33.6315 59.9872 33.4195 59.9815L33.3342 59.9786C33.1236 59.9715 32.9102 59.9644 32.6968 59.953C32.6926 59.953 32.6826 59.9516 32.6783 59.9516C31.7864 59.9089 30.8859 59.8334 30.0124 59.7294L29.9896 59.7266C28.8615 59.5913 27.7647 59.4033 26.7176 59.1697C26.7162 59.1697 26.7148 59.1698 26.7133 59.1683C25.4131 58.8778 24.1654 58.509 23.0046 58.0718L22.9875 58.0661C20.1508 56.9952 17.7922 55.5084 15.9783 53.6443C15.9129 53.5773 15.8474 53.509 15.782 53.4406C15.7009 53.3537 15.6227 53.2683 15.5444 53.1829C15.4633 53.0931 15.3851 53.0006 15.3054 52.9094L15.2542 52.851C15.2101 52.7998 15.166 52.7485 15.1233 52.6972C14.9996 52.5477 14.8744 52.3868 14.7407 52.2102C14.7051 52.1618 14.6695 52.1134 14.634 52.0649L14.6041 52.0222C14.5116 51.8955 14.4206 51.7659 14.3309 51.6349L14.3096 51.6035C14.2769 51.5551 14.2442 51.5067 14.2114 51.4583C14.072 51.2461 13.9582 51.0666 13.8529 50.8901C13.8515 50.8872 13.8501 50.8858 13.8487 50.8829C13.8473 50.8815 13.8458 50.8787 13.8458 50.8772C13.8444 50.8744 13.843 50.873 13.8416 50.8701C13.8387 50.8644 13.8359 50.8587 13.833 50.8545C13.7164 50.6565 13.604 50.4628 13.4959 50.2706C13.4703 50.2236 13.4447 50.1766 13.4191 50.1296L13.3479 50C13.2853 49.8861 13.2227 49.7721 13.163 49.6596C13.1331 49.6027 13.1032 49.5457 13.0748 49.4888L12.9937 49.3293C12.9453 49.2367 12.8984 49.1427 12.8514 49.0516C12.8201 48.9889 12.7903 48.9262 12.7618 48.865L12.6821 48.6984C12.6409 48.6144 12.6011 48.5289 12.5612 48.4449C12.5299 48.378 12.5015 48.3124 12.4716 48.2455L12.4005 48.086C12.3635 48.0034 12.3265 47.9222 12.2909 47.8411C12.261 47.7713 12.2312 47.7015 12.2027 47.6317L12.1415 47.4836C12.1074 47.4024 12.0733 47.3213 12.0405 47.2401C12.0107 47.1675 11.9836 47.0948 11.9552 47.0222L11.9011 46.8841C11.8698 46.8043 11.8385 46.7246 11.8101 46.6448C11.7816 46.5679 11.7546 46.4925 11.7276 46.4155L11.6806 46.286C11.6522 46.2076 11.6251 46.1293 11.5981 46.0524C11.5697 45.9712 11.5441 45.8915 11.5184 45.8103L11.4786 45.6907C11.4544 45.6152 11.4288 45.5397 11.4061 45.4643C11.3805 45.3831 11.3563 45.3033 11.3335 45.2222L11.2979 45.104C11.2752 45.0299 11.2538 44.9544 11.2325 44.8804C11.2069 44.7892 11.1827 44.6981 11.1585 44.6084L11.1386 44.5343C11.1173 44.4574 11.0974 44.3791 11.0774 44.3022C11.0533 44.2054 11.0291 44.1085 11.0063 44.0117L10.9907 43.9476C10.9736 43.875 10.9551 43.8009 10.9394 43.7283C10.9167 43.6272 10.8953 43.5261 10.874 43.4264L10.8626 43.3737C10.847 43.3025 10.8327 43.2298 10.8185 43.1586C10.7972 43.0533 10.7787 42.9479 10.7588 42.8425L10.7517 42.8169C10.7374 42.7428 10.7246 42.6673 10.7118 42.5933C10.6933 42.485 10.6777 42.3797 10.6606 42.2729L10.6578 42.2586C10.6464 42.1831 10.635 42.1077 10.6236 42.0336C10.608 41.9254 10.5937 41.8186 10.5809 41.7103L10.5767 41.6804C10.5681 41.6135 10.5596 41.5466 10.5525 41.4811C10.5397 41.3728 10.5283 41.2632 10.5183 41.1549L10.5169 41.135C10.5112 41.0695 10.5041 41.0026 10.4984 40.9371C10.4885 40.826 10.4799 40.7149 10.4728 40.6052C10.4671 40.5355 10.4629 40.4657 10.4586 40.3973C10.4515 40.2848 10.4458 40.1737 10.4415 40.0627C10.4387 39.9957 10.4358 39.9302 10.433 39.8647C10.4287 39.7508 10.4259 39.6383 10.4245 39.5244C10.423 39.4617 10.423 39.399 10.4216 39.3364C10.4202 39.2224 10.4216 39.1071 10.4216 38.9932L10.4245 38.8194C10.4273 38.7012 10.4301 38.5844 10.4344 38.4691L10.4415 38.3082C10.4472 38.1885 10.4529 38.0704 10.46 37.9536L10.47 37.8069C10.4785 37.6844 10.4885 37.5634 10.4984 37.4452L10.5112 37.3127C10.524 37.186 10.5368 37.0635 10.5496 36.9425L10.5639 36.8214C10.5795 36.6961 10.5952 36.5722 10.6137 36.4483L10.6293 36.3443C10.6478 36.2162 10.6677 36.0894 10.6891 35.9641L10.7047 35.873C10.7275 35.742 10.7502 35.6138 10.7758 35.4856L10.7915 35.4087C10.8171 35.2791 10.8441 35.1481 10.874 35.0171L10.8868 34.9601C10.9181 34.8234 10.9494 34.6881 10.9821 34.5557L10.9892 34.5286C11.0262 34.3791 11.0618 34.2424 11.1002 34.1057C11.1016 34.1014 11.1045 34.0886 11.1059 34.0843C11.1443 33.9433 11.1841 33.8052 11.2268 33.667C11.2268 33.6642 11.2282 33.6628 11.2282 33.6599C11.2738 33.5104 11.3207 33.3623 11.3676 33.2156C11.3691 33.2113 11.3705 33.2056 11.3733 33.1999C11.4217 33.0533 11.4687 32.9151 11.5184 32.777C11.5213 32.7713 11.5227 32.7656 11.5256 32.7585C11.5739 32.6246 11.6251 32.4865 11.6778 32.3483C11.6792 32.3441 11.6863 32.327 11.6877 32.3227C11.7361 32.1974 11.7902 32.0635 11.8442 31.9311C11.8456 31.9282 11.8499 31.9154 11.8513 31.9126C11.9068 31.7801 11.9623 31.6505 12.0178 31.5238C12.0192 31.5224 12.0235 31.5095 12.0249 31.5081C12.0832 31.3757 12.1415 31.2504 12.1999 31.1279C12.2013 31.1265 12.207 31.1122 12.2084 31.1108C12.271 30.9798 12.3293 30.8602 12.3891 30.742L12.4033 30.7149C12.4631 30.5953 12.5242 30.4799 12.5854 30.366L12.6053 30.329C12.6423 30.2606 12.6793 30.1908 12.7177 30.121C12.7063 30.1125 12.6949 30.1054 12.6836 30.0968L12.6323 30.0612C12.4631 29.943 12.2881 29.8134 12.1145 29.681L12.0647 29.6426C11.8841 29.503 11.7119 29.3663 11.5497 29.231C11.5469 29.2281 11.5355 29.2182 11.5312 29.2153C11.1827 28.9234 10.8427 28.6144 10.5198 28.2954L10.5055 28.2825C10.3491 28.1273 10.1926 27.9664 10.0375 27.7998L10.0119 27.7713C9.99625 27.7542 9.9806 27.7385 9.96495 27.7214C9.40018 27.7428 8.82402 27.7414 8.24217 27.7157C6.43973 27.6374 4.90188 27.3683 3.67417 26.9168C3.66848 26.914 3.6571 26.9111 3.64856 26.9069C1.50896 26.1122 0.81757 24.9644 0.612714 24.1398C0.406435 23.3082 0.622672 22.4566 1.20736 21.8029C2.26436 20.6209 3.36404 19.9829 3.68555 19.812C3.87618 19.6867 4.72264 19.1171 5.68859 18.237C5.65444 17.9009 5.63026 17.5619 5.61603 17.2244L5.61034 17.0906C5.60323 16.8841 5.60039 16.7089 5.60039 16.5423C5.60039 16.538 5.60039 16.5323 5.60039 16.5281C5.60039 13.4976 6.42692 10.534 7.99179 7.95642C8.06008 7.84249 8.13121 7.72999 8.20234 7.61891C8.3446 7.39675 8.4954 7.17459 8.64762 6.95956C8.87666 6.63771 9.11992 6.32014 9.37173 6.01396C9.53959 5.81031 9.71315 5.60951 9.89098 5.41441C10.157 5.12247 10.4358 4.83623 10.7204 4.56423C10.911 4.38194 11.1087 4.20251 11.3065 4.03019C11.4061 3.94332 11.5071 3.85787 11.6081 3.77385C12.0149 3.43777 12.4417 3.11735 12.8785 2.82256C13.3166 2.52635 13.7747 2.24722 14.2399 1.99516C14.5913 1.80433 14.9526 1.62489 15.3154 1.4597C15.5587 1.35004 15.8076 1.24466 16.0566 1.1464C17.9842 0.38593 20.0214 0 22.1112 0C22.2833 0 22.454 0.00284839 22.6233 0.00854477L22.7727 0.0142407C22.9007 0.0199371 23.0288 0.025634 23.1568 0.0341785L23.2977 0.0427228C23.4669 0.0541155 23.6377 0.0683564 23.8055 0.0854455C23.8112 0.0854455 23.8183 0.0868697 23.8254 0.0882938C23.989 0.105383 24.1498 0.12532 24.3106 0.146682L24.4386 0.165195C24.5737 0.183708 24.7089 0.20507 24.8426 0.227855L24.9507 0.246368C25.1712 0.284819 25.4031 0.33039 25.635 0.380233C25.7431 0.403019 25.8498 0.427228 25.9565 0.454286L26.0461 0.475648C26.1941 0.512674 26.342 0.549701 26.4886 0.591L26.5483 0.606664C26.8755 0.697807 27.2127 0.80319 27.5441 0.918542L27.5954 0.937055C28.0919 1.11222 28.5855 1.31302 29.0621 1.53517C29.0635 1.5366 29.0763 1.5423 29.0777 1.5423C29.4576 1.71888 29.836 1.91398 30.2016 2.12048C30.4008 2.23298 30.5999 2.35118 30.7948 2.47223C30.7991 2.47508 30.8033 2.47793 30.8076 2.47935C31.3781 2.83395 31.94 3.2327 32.4706 3.66135L32.4977 3.68414C32.6641 3.818 32.8348 3.96326 33.0013 4.10852C33.0041 4.11136 33.0141 4.11991 33.0169 4.12276C33.3541 4.41897 33.6827 4.73369 33.9943 5.05696C34.1508 5.21931 34.3001 5.38023 34.4481 5.54828L34.4851 5.58957C34.6287 5.75335 34.771 5.91854 34.9033 6.08231L34.9218 6.1051C35.2006 6.44973 35.4667 6.80433 35.7156 7.16605L35.7469 7.2102C35.8636 7.38109 35.9802 7.5591 36.094 7.73996L36.1339 7.80547C36.2534 7.9963 36.3601 8.17573 36.4611 8.35374L36.4796 8.3865C36.5948 8.59015 36.6958 8.7767 36.7911 8.96041C36.7925 8.96326 36.794 8.96611 36.7954 8.96753C36.8921 9.15551 36.9846 9.34492 37.0813 9.55283L37.1169 9.62973C37.2037 9.81771 37.2862 10.0085 37.3658 10.1994L37.4014 10.2848C37.4882 10.497 37.5622 10.6907 37.6305 10.8787L37.6447 10.9185C37.7158 11.1165 37.7841 11.3173 37.8481 11.5181L37.8652 11.5694C37.9249 11.763 37.9833 11.961 38.043 12.1774L38.0715 12.2828C38.1255 12.4836 38.1739 12.6873 38.2194 12.8866L38.2408 12.9863C38.2905 13.2156 38.3318 13.4221 38.3674 13.6201L38.3731 13.6585C38.4072 13.8536 38.4385 14.0601 38.4698 14.2823L38.4812 14.3691C38.5068 14.5671 38.5295 14.7736 38.5509 14.9986L38.5608 15.1182C38.5793 15.3361 38.5936 15.5497 38.6021 15.7533L38.6064 15.8545C38.6163 16.1022 38.6206 16.323 38.6206 16.5281C38.6206 19.3649 37.9192 22.082 36.5735 24.5101C36.6218 24.513 36.6716 24.5172 36.7214 24.5215L37.1297 24.5557C37.2378 24.5657 37.3459 24.5742 37.4555 24.5856L37.5195 24.5913C37.6091 24.5998 37.7002 24.6084 37.7912 24.6183L37.8894 24.6283C37.9804 24.6383 38.0729 24.6468 38.1668 24.6568L38.2336 24.6639C38.3475 24.6767 38.4613 24.6895 38.5765 24.7024L38.6718 24.7138C38.76 24.7237 38.8496 24.7351 38.9393 24.7465L39.0502 24.7608C39.1555 24.7736 39.2636 24.7878 39.3732 24.802L39.3959 24.8049C39.3988 24.8049 39.4087 24.8063 39.4116 24.8063C39.5325 24.822 39.6534 24.8391 39.7758 24.8562L40.2779 24.9288C40.4031 24.9473 40.5283 24.9672 40.6563 24.9872L40.6933 24.9929C40.8128 25.0114 40.9295 25.0313 41.0447 25.0498L41.1671 25.0698C41.2652 25.0869 41.3634 25.104 41.463 25.121L41.5711 25.1396C41.7034 25.1638 41.8357 25.1866 41.968 25.2108L42.0477 25.225C42.1586 25.2464 42.2682 25.2663 42.3791 25.2877L42.5057 25.3119C42.6139 25.3332 42.722 25.3546 42.8301 25.376L42.9254 25.3959C43.062 25.4244 43.2 25.4529 43.3394 25.4828L43.4418 25.5056C43.5514 25.5298 43.6609 25.5525 43.769 25.5782L43.8985 25.6067C44.0208 25.6337 44.1446 25.6622 44.2669 25.6921L44.3267 25.7064C44.4718 25.7405 44.6169 25.7761 44.7606 25.8103L44.8744 25.8388C44.9868 25.8673 45.0977 25.8943 45.2101 25.9228L45.3382 25.9556C45.4847 25.994 45.6326 26.0325 45.7806 26.0723C45.9769 26.125 46.1718 26.1735 46.3667 26.219L46.536 26.2575C46.684 26.2917 46.8319 26.323 46.977 26.3529L47.1306 26.3842C47.3156 26.4212 47.4991 26.454 47.6812 26.4853L47.8405 26.511C47.9728 26.5323 48.1037 26.5523 48.2346 26.5708C48.3057 26.5807 48.3783 26.5907 48.4494 26.5993C48.5718 26.6149 48.6927 26.6292 48.8122 26.642C48.8975 26.652 48.9857 26.6605 49.0711 26.669C49.2062 26.6819 49.34 26.6947 49.4723 26.7046C49.5619 26.7118 49.6515 26.7175 49.7411 26.7232C49.8208 26.7289 49.8976 26.7331 49.9759 26.736C50.0726 26.7402 50.1708 26.7459 50.2675 26.7488L50.4098 26.7531C50.6288 26.7588 50.8408 26.7616 51.0428 26.7602H51.1467C51.2662 26.7588 51.3857 26.7573 51.5038 26.7531L51.5649 26.7516C51.9505 26.7388 52.3317 26.716 52.7016 26.6819C55.6805 26.4056 57.9965 25.46 59.1702 24.6668C59.2171 24.6354 59.2612 24.6041 59.3053 24.5728L59.331 24.5543C59.3694 24.5272 59.4035 24.5016 59.4362 24.4759L59.4803 24.4403C59.4818 24.4389 59.4931 24.4304 59.4946 24.4289C59.5131 24.4147 59.5301 24.4005 59.5472 24.3862C59.5771 24.3606 59.6084 24.3335 59.6382 24.3065C60.0935 23.8778 60.7166 23.7197 61.307 23.8821C61.9841 24.0686 62.8633 24.6411 63.66 27.438C63.7254 27.6688 63.7894 27.9109 63.8492 28.1586C63.9103 28.4093 63.9687 28.6699 64.0227 28.9348C64.1067 29.3406 64.1821 29.7664 64.2503 30.198C64.32 30.6437 64.3798 31.1051 64.4296 31.5694C64.4637 31.8869 64.4936 32.2116 64.5178 32.5363C64.5832 33.3865 64.6145 34.2523 64.6117 35.1125C64.6103 35.4714 64.6031 35.8359 64.5903 36.1934C64.5704 36.7502 64.5349 37.3099 64.4865 37.8582C64.4524 38.237 64.4111 38.6172 64.3641 38.9889C63.99 41.9268 63.209 44.6169 62.041 46.9823C61.2785 48.5275 60.3438 49.9416 59.2641 51.182C59.1417 51.323 59.0066 51.4711 58.853 51.6349C58.8217 51.669 58.7875 51.7032 58.7548 51.7374L58.7192 51.7744C58.6211 51.877 58.5201 51.9781 58.4162 52.0792C58.3636 52.1304 58.3109 52.1817 58.2583 52.2316C58.1545 52.3298 58.0506 52.4267 57.9439 52.5235L57.9027 52.5605C57.8657 52.5947 57.8287 52.6289 57.7903 52.6616C57.6537 52.7827 57.5157 52.9009 57.3734 53.0191L57.3108 53.0718C57.1515 53.2028 56.9879 53.3338 56.8072 53.4734C56.7717 53.5004 56.7347 53.5289 56.6977 53.556L56.6522 53.5901C56.5313 53.6813 56.4089 53.7739 56.2837 53.8636C56.2211 53.9091 56.1571 53.9547 56.0931 54.0003C55.9736 54.0843 55.8527 54.1683 55.7303 54.2509L55.6848 54.2823C55.6364 54.315 55.5881 54.3478 55.5397 54.3805C55.396 54.4759 55.2509 54.5699 55.103 54.6625L55.0603 54.6895C55.0318 54.7081 55.0048 54.7251 54.9763 54.7437C54.7886 54.8604 54.5979 54.9758 54.4045 55.0897C54.366 55.1125 54.3276 55.1339 54.2892 55.1566L54.2323 55.1894C54.0929 55.2706 53.9521 55.3503 53.8098 55.4286C53.7401 55.4671 53.6704 55.5056 53.5993 55.544L53.585 55.5525C53.4542 55.6238 53.3233 55.6935 53.191 55.7619L53.1696 55.7733C53.0985 55.8103 53.0288 55.8473 52.9577 55.8829C52.814 55.9556 52.6689 56.0282 52.5223 56.0994L52.4555 56.1322C52.4128 56.1535 52.3701 56.1749 52.326 56.1948C52.1212 56.2931 51.9135 56.3899 51.7029 56.4853C51.6574 56.5067 51.6119 56.5266 51.5663 56.5466L51.4966 56.5779C51.3501 56.6434 51.2007 56.7089 51.0499 56.7744C50.9632 56.8114 50.875 56.8485 50.7853 56.8855C50.6473 56.9439 50.5136 56.998 50.3799 57.0521C50.2846 57.0906 50.1893 57.129 50.0939 57.166C49.9574 57.2202 49.818 57.2729 49.68 57.3255L49.606 57.354C49.5406 57.3797 49.4751 57.4039 49.4082 57.4281C49.192 57.5078 48.9743 57.5862 48.7553 57.6631C48.6998 57.683 48.6429 57.7015 48.586 57.7214L48.4935 57.7528C48.3484 57.8026 48.2047 57.851 48.0582 57.898C47.9558 57.9308 47.8533 57.9635 47.7523 57.9963L47.7281 58.0034C47.603 58.0433 47.4792 58.0817 47.3526 58.1202C47.2345 58.1558 47.1178 58.1914 47.0012 58.2256C46.8788 58.2612 46.7565 58.2968 46.6327 58.3324L46.5659 58.3509C46.4691 58.378 46.3724 58.4064 46.2757 58.4335C46.1647 58.4648 46.0523 58.4947 45.9399 58.5232L45.8787 58.5389C45.6654 58.5958 45.452 58.65 45.2372 58.7041L45.1546 58.7254C45.0664 58.7468 44.9782 58.7696 44.8886 58.7909C44.7634 58.8208 44.6397 58.8493 44.5145 58.8778L44.4775 58.8864C44.3708 58.9106 44.2641 58.9348 44.1574 58.959C44.0166 58.9903 43.8743 59.0202 43.732 59.0516C43.6296 59.0729 43.53 59.0928 43.429 59.1142C43.2811 59.1441 43.1317 59.174 42.9837 59.2025C42.9325 59.2125 42.8799 59.2224 42.8287 59.231L42.7433 59.2467C42.3948 59.3122 42.0491 59.372 41.7162 59.4261L41.591 59.4474C41.4217 59.4745 41.2538 59.5001 41.0846 59.5243L40.8456 59.56C40.6791 59.5842 40.5112 59.6069 40.342 59.6283L40.1129 59.6582C39.9379 59.681 39.7615 59.7024 39.5851 59.7223L39.4528 59.7365C38.8383 59.8049 38.2123 59.8604 37.5949 59.9032L37.4626 59.9117C37.2705 59.9245 37.0771 59.9359 36.885 59.9459L36.7328 59.953C36.535 59.963 36.3359 59.9715 36.1367 59.9786L36.0798 59.9801C35.5975 59.9929 35.1153 60 34.6387 60ZM34.1038 57.149C34.7226 57.1575 35.3543 57.1518 35.9831 57.1304L36.0329 57.129C36.2192 57.1219 36.4056 57.1148 36.5905 57.1048L36.7314 57.0977C36.912 57.0877 37.0927 57.0778 37.2734 57.0664L37.3971 57.0578C37.9762 57.0179 38.5623 56.9652 39.137 56.9012L39.2608 56.8883C39.4258 56.8698 39.5908 56.8499 39.7558 56.8285L39.9706 56.8015C40.1286 56.7801 40.285 56.7602 40.4415 56.7374L40.6649 56.7046C40.8228 56.6819 40.9807 56.6576 41.1386 56.632L41.2567 56.6121C41.5682 56.5608 41.8912 56.5053 42.217 56.444L42.4431 56.4013C42.584 56.3743 42.7234 56.3458 42.8614 56.3173C42.9553 56.2988 43.0506 56.2788 43.1445 56.2589C43.2768 56.2304 43.4091 56.2019 43.5414 56.1735C43.6424 56.1507 43.742 56.1279 43.8402 56.1051L43.8771 56.0965C43.9924 56.0695 44.109 56.0439 44.2243 56.0154C44.3039 55.9969 44.3836 55.9769 44.4647 55.9556L44.55 55.9342C44.7506 55.8844 44.9498 55.8331 45.1475 55.7804L45.2101 55.7633C45.3126 55.7363 45.4164 55.7092 45.5188 55.6807C45.607 55.6565 45.6938 55.6309 45.782 55.6067L45.8503 55.5867C45.9655 55.554 46.0793 55.5212 46.1917 55.487C46.3013 55.4543 46.4094 55.4215 46.5175 55.3888C46.6342 55.3532 46.7494 55.3161 46.866 55.2805L46.8902 55.2734C46.9841 55.2435 47.0794 55.2136 47.1733 55.1837C47.3071 55.1396 47.4408 55.094 47.5745 55.0498L47.6784 55.0142C47.7253 54.9986 47.7708 54.9829 47.8178 54.9672C48.0212 54.896 48.2218 54.8248 48.421 54.7508C48.4779 54.7294 48.5348 54.7081 48.5902 54.6867L48.6699 54.6568C48.798 54.6084 48.926 54.56 49.0512 54.5101C49.1394 54.4759 49.2262 54.4403 49.3129 54.4062C49.4353 54.3563 49.5576 54.3065 49.6785 54.2566C49.7667 54.2196 49.8478 54.1868 49.9275 54.1527C50.0655 54.0943 50.2021 54.0345 50.3372 53.9732L50.5264 53.8892C50.7156 53.8038 50.9048 53.714 51.0926 53.6243L51.269 53.5375C51.4013 53.4734 51.5336 53.4079 51.6631 53.3409C51.7271 53.3082 51.7897 53.2754 51.8523 53.2427L51.8736 53.2313C51.9931 53.1686 52.1112 53.1059 52.2279 53.0433L52.2421 53.0362C52.3047 53.002 52.3673 52.9678 52.4299 52.9336C52.5579 52.8624 52.6831 52.7912 52.8083 52.7186L52.9619 52.6303C53.1341 52.5292 53.3034 52.4267 53.4698 52.3227L53.5822 52.2501C53.7102 52.1689 53.8397 52.0863 53.9649 52.0023C54.0047 51.9752 54.0445 51.9482 54.0844 51.9211L54.1327 51.8884C54.2394 51.8157 54.3447 51.7431 54.4486 51.669C54.504 51.6292 54.5595 51.5907 54.6136 51.5508C54.7217 51.4725 54.8284 51.3928 54.9337 51.313L54.9906 51.2703C55.0162 51.2518 55.0418 51.2318 55.066 51.2133C55.2225 51.0923 55.3619 50.9812 55.4956 50.8715L55.5511 50.8246C55.6706 50.7249 55.7872 50.6252 55.9025 50.5226C55.9309 50.4984 55.9579 50.4728 55.985 50.4486L56.0305 50.4073C56.1187 50.3275 56.2069 50.2464 56.2923 50.1638C56.3364 50.1225 56.3805 50.0798 56.4231 50.037C56.5085 49.9544 56.591 49.8704 56.6721 49.785L56.7176 49.7394C56.739 49.7166 56.7617 49.6952 56.7816 49.6725C56.9097 49.5372 57.0178 49.4175 57.116 49.3065C58.035 48.2498 58.833 47.0421 59.4874 45.7163C60.5146 43.6343 61.206 41.2489 61.5388 38.6257C61.5815 38.2882 61.6185 37.9436 61.6498 37.6004C61.6939 37.102 61.7266 36.5936 61.7451 36.0866C61.7565 35.7605 61.7636 35.4286 61.765 35.0997C61.7679 34.315 61.7394 33.5246 61.6797 32.7499C61.6569 32.4537 61.6299 32.1589 61.5986 31.8698C61.5531 31.4497 61.499 31.0325 61.4364 30.6309C61.3767 30.2449 61.3084 29.8661 61.2344 29.5058C61.186 29.2737 61.1362 29.0459 61.0822 28.828C61.031 28.6158 60.9769 28.4107 60.9214 28.2156C60.7948 27.7727 60.6725 27.4238 60.5644 27.1561C58.6652 28.3723 55.847 29.2509 52.9619 29.5187C52.5351 29.5585 52.0956 29.5856 51.6545 29.5998L51.5834 29.6027C51.4454 29.6069 51.3089 29.6098 51.1709 29.6112H51.0514C50.8209 29.6112 50.5762 29.6098 50.3287 29.6027L50.2803 29.6013C50.2405 29.5998 50.2021 29.5998 50.1622 29.5984C50.0527 29.5941 49.9403 29.5884 49.8293 29.5827C49.7397 29.5785 49.6487 29.5728 49.559 29.5671C49.458 29.5614 49.3556 29.5543 49.2518 29.5457C49.0981 29.5343 48.9459 29.5201 48.7923 29.5058C48.6941 29.4959 48.5945 29.4859 48.4949 29.4745C48.3569 29.4588 48.2175 29.4432 48.0795 29.4247C47.9984 29.4147 47.9159 29.4033 47.8348 29.3919C47.6855 29.3705 47.5361 29.3478 47.3839 29.3236L47.327 29.315C47.2843 29.3079 47.243 29.3022 47.2004 29.2951C46.9927 29.2595 46.7835 29.221 46.573 29.1797C46.5331 29.1712 46.4919 29.1641 46.4521 29.1555L46.398 29.1441C46.2316 29.1099 46.0637 29.0729 45.8958 29.0345L45.8787 29.0302C45.8204 29.0174 45.7607 29.0031 45.7023 28.9889C45.4505 28.9291 45.24 28.8764 45.0366 28.8223C44.8972 28.7852 44.7577 28.7482 44.6197 28.7126L44.5017 28.6827C44.395 28.6557 44.2911 28.6286 44.1858 28.603L44.0777 28.5759C43.9412 28.5417 43.8046 28.509 43.6709 28.4776L43.6125 28.4634C43.4973 28.4363 43.3806 28.4093 43.2654 28.3836L43.1445 28.3566C43.0421 28.3338 42.9396 28.311 42.8372 28.2882L42.7405 28.2669C42.6096 28.2384 42.4801 28.2113 42.3507 28.1857L42.2611 28.1672C42.16 28.1473 42.0576 28.1259 41.9566 28.106L41.8371 28.0832C41.7318 28.0632 41.628 28.0433 41.5241 28.0234L41.4502 28.0091C41.3236 27.9863 41.1984 27.9635 41.0746 27.9408L40.975 27.9237C40.8783 27.9066 40.7858 27.8909 40.6933 27.8752L40.5781 27.8553C40.4686 27.8368 40.359 27.8197 40.2509 27.8026C40.2495 27.8026 40.2353 27.7998 40.2338 27.7998L40.2111 27.7955C40.0916 27.777 39.9721 27.7585 39.854 27.74L39.3803 27.6716C39.265 27.6559 39.1498 27.6388 39.036 27.6246L38.9962 27.6189C38.898 27.6061 38.7956 27.5933 38.6931 27.5805L38.5893 27.5676C38.5054 27.5577 38.4214 27.5477 38.3375 27.5377L38.2464 27.5278C38.1383 27.515 38.0302 27.5036 37.9235 27.4922L37.8609 27.485C37.7699 27.4751 37.6831 27.4665 37.5963 27.458L37.5053 27.4494C37.4171 27.4409 37.3331 27.4324 37.2478 27.4238L37.1894 27.4181C37.0842 27.4081 36.9817 27.3996 36.8807 27.3911L36.4952 27.3597C36.407 27.3526 36.3188 27.3455 36.2306 27.3398L36.3103 25.9171L36.2093 27.3369C36.1125 27.3298 36.0172 27.3241 35.9219 27.317L35.5805 27.2956C35.3927 27.2842 35.2149 27.2757 35.0427 27.2672L34.7482 27.2543C34.579 27.2472 34.4168 27.243 34.2603 27.2387H34.2446C34.1479 27.2358 34.064 27.2344 33.9815 27.233C33.4423 27.223 32.9558 26.9083 32.7239 26.4212C32.492 25.9342 32.5546 25.3574 32.8861 24.9331C34.7739 22.5121 35.7711 19.6041 35.7711 16.5252C35.7711 16.3572 35.7668 16.1749 35.7583 15.9655L35.7555 15.8801C35.7483 15.7135 35.7355 15.5369 35.7213 15.3546L35.7128 15.2563C35.6957 15.0684 35.6772 14.8975 35.6559 14.7337L35.6459 14.6611C35.6203 14.4759 35.5947 14.305 35.5662 14.1398L35.5606 14.1042C35.5335 13.9533 35.4994 13.7824 35.4581 13.5901L35.4396 13.5061C35.4026 13.3424 35.3614 13.1757 35.3173 13.0077L35.2945 12.9208C35.2447 12.7385 35.1978 12.5748 35.1494 12.4195L35.1352 12.374C35.0826 12.2088 35.0271 12.0436 34.9688 11.8827L34.9574 11.8513C34.9005 11.6932 34.8379 11.5337 34.7667 11.3586L34.7369 11.2874C34.6714 11.1279 34.6017 10.9698 34.5306 10.816L34.5007 10.7519C34.421 10.5796 34.3456 10.4258 34.2717 10.282C34.2688 10.2763 34.266 10.2706 34.2631 10.2663C34.1849 10.1125 34.0995 9.95728 34.0056 9.79066L33.9886 9.76075C33.9046 9.61264 33.8164 9.46454 33.7169 9.30647L33.6827 9.25235C33.5874 9.09997 33.4907 8.95329 33.3953 8.81373L33.3669 8.77385C33.162 8.47622 32.9415 8.18285 32.7139 7.90088L32.6983 7.88095C32.5859 7.74423 32.4692 7.60609 32.3483 7.46938L32.3199 7.43663C32.1947 7.29564 32.0709 7.16178 31.95 7.03646C31.6854 6.76161 31.4122 6.501 31.132 6.2532C31.1291 6.25036 31.1206 6.24324 31.1177 6.24039C30.984 6.12219 30.8418 6.00256 30.6981 5.88579L30.6782 5.87012C30.2414 5.51695 29.7762 5.18656 29.2982 4.89034C29.2968 4.88892 29.2954 4.88892 29.294 4.8875C29.1318 4.78781 28.9668 4.68955 28.8032 4.59698C28.5001 4.42609 28.1872 4.26517 27.8713 4.11848C27.4659 3.92908 27.0562 3.76246 26.6451 3.6172L26.6066 3.60296C26.3307 3.50612 26.0518 3.41925 25.7787 3.34235L25.7332 3.32954C25.6108 3.29536 25.4899 3.26403 25.3676 3.23412L25.295 3.21703C25.204 3.19567 25.1158 3.17573 25.0261 3.1558C24.8327 3.11307 24.642 3.07605 24.4599 3.04472L24.3703 3.03048C24.2608 3.01196 24.1498 2.99487 24.0374 2.97921L23.9321 2.96497C23.797 2.94645 23.6604 2.93079 23.5239 2.91655C23.5182 2.91655 23.5125 2.91512 23.5054 2.91512C23.3688 2.90088 23.2308 2.88949 23.0928 2.87952L22.9747 2.8724C22.8695 2.86528 22.7628 2.86101 22.6561 2.85674L22.5323 2.85246C22.3915 2.84819 22.2492 2.84534 22.1055 2.84534C20.3756 2.84534 18.6898 3.16434 17.0951 3.79379C16.8888 3.87496 16.6825 3.96183 16.4819 4.05298C16.1818 4.18827 15.883 4.3378 15.5928 4.49587C15.2087 4.70521 14.8289 4.93592 14.4661 5.18086C14.1048 5.4258 13.7505 5.69069 13.4134 5.96838C13.3294 6.03817 13.2455 6.10795 13.163 6.18057C12.998 6.32298 12.8344 6.47251 12.6764 6.62204C12.4403 6.84705 12.2084 7.08488 11.9893 7.32697C11.8428 7.4879 11.6991 7.65451 11.5597 7.82398C11.3506 8.07747 11.15 8.3395 10.9608 8.60723C10.8342 8.78525 10.7104 8.96896 10.5923 9.15266C10.534 9.24523 10.4757 9.33779 10.4173 9.43178C9.12561 11.5608 8.44134 14.0088 8.43992 16.5124C8.43992 16.5167 8.43992 16.5209 8.43992 16.5252C8.43992 16.6819 8.44418 16.8371 8.44845 16.9923L8.45272 17.1005C8.47264 17.5947 8.51958 18.0846 8.59071 18.5617C8.65758 19.0117 8.50678 19.466 8.18385 19.785C6.65739 21.2945 5.21344 22.2088 5.15226 22.2472C5.11385 22.2714 5.0726 22.2942 5.03134 22.3156C5.02992 22.317 4.23752 22.73 3.45224 23.5574C3.60304 23.7169 3.95585 23.9846 4.63728 24.2367C4.64297 24.2381 4.6515 24.2424 4.65862 24.2452C5.59612 24.5884 6.87504 24.8035 8.35883 24.869C9.07724 24.9003 9.7857 24.8903 10.4614 24.8391C10.9167 24.8049 11.3605 24.9915 11.655 25.3404L11.7105 25.4059C11.7119 25.4087 11.7162 25.413 11.719 25.4158C11.84 25.5568 11.9623 25.6935 12.0875 25.8302L12.1117 25.8559C12.2397 25.9926 12.3692 26.1279 12.4972 26.2532L12.51 26.266C12.7789 26.5309 13.0606 26.7872 13.3479 27.0279C13.3508 27.0308 13.3636 27.0422 13.3664 27.0436C13.4959 27.1518 13.6396 27.2657 13.7889 27.3811L13.8345 27.4153C13.9767 27.5235 14.1218 27.6303 14.2641 27.73L14.3053 27.7585C14.6084 27.9707 14.9242 28.1715 15.24 28.3552L15.3623 28.4249C15.708 28.6215 15.9556 28.9547 16.0452 29.3421C16.1348 29.7294 16.058 30.1381 15.8346 30.4671L15.7749 30.5568C15.7251 30.6309 15.6739 30.7092 15.6227 30.7904L15.5985 30.8288C15.5487 30.9071 15.4975 30.9912 15.4463 31.0766L15.4278 31.1065C15.3751 31.1948 15.3239 31.2817 15.2741 31.3714L15.2571 31.4013C15.2059 31.4925 15.1546 31.585 15.1048 31.6776L15.0906 31.7046C15.0394 31.8001 14.9896 31.8955 14.9398 31.9937L14.9256 32.0222C14.8772 32.1176 14.8289 32.2187 14.7805 32.3199C14.7805 32.3213 14.7734 32.3341 14.7734 32.3355C14.7207 32.4452 14.6738 32.5506 14.6268 32.6559C14.6268 32.6574 14.6212 32.6688 14.6197 32.6702C14.5699 32.7827 14.523 32.8909 14.4775 33.002C14.4761 33.0048 14.4718 33.0162 14.4704 33.0177C14.4248 33.1287 14.3793 33.2412 14.3352 33.3566C14.3338 33.3609 14.3309 33.3694 14.3281 33.3737C14.2854 33.4862 14.2413 33.603 14.1986 33.7212C14.1972 33.724 14.1958 33.7297 14.193 33.7354C14.1503 33.8536 14.109 33.9732 14.0692 34.0943C14.0678 34.0971 14.0663 34.1028 14.0649 34.1071C14.0237 34.2338 13.9853 34.3549 13.9483 34.4774C13.9468 34.4802 13.9468 34.4831 13.9454 34.4845C13.9099 34.6012 13.8771 34.718 13.8444 34.8362C13.843 34.8391 13.8401 34.8533 13.8387 34.8562C13.8074 34.9687 13.7775 35.0854 13.7477 35.2036L13.742 35.2264C13.7107 35.3489 13.6851 35.4628 13.6595 35.5782L13.6495 35.6238C13.6239 35.7377 13.6011 35.8488 13.5784 35.9613L13.5642 36.0282C13.5442 36.1336 13.5243 36.2432 13.5044 36.3543L13.4916 36.4298C13.4731 36.538 13.456 36.6463 13.4404 36.7545L13.4276 36.8414C13.4119 36.9482 13.3991 37.055 13.3849 37.1604L13.3721 37.2643C13.3607 37.3668 13.3493 37.4722 13.3394 37.5762L13.328 37.6901C13.3195 37.7927 13.3109 37.8952 13.3038 37.9991L13.2953 38.1259C13.2896 38.227 13.2839 38.3281 13.2796 38.4292L13.2739 38.5659C13.2697 38.6656 13.2668 38.7653 13.2654 38.865L13.264 39.0145C13.2626 39.1114 13.2626 39.2096 13.264 39.3079C13.264 39.362 13.2654 39.4147 13.2654 39.4688C13.2668 39.5656 13.2697 39.6625 13.2725 39.7593C13.2739 39.8163 13.2768 39.8733 13.2796 39.9302C13.2839 40.0242 13.2882 40.121 13.2939 40.2179C13.2967 40.2777 13.301 40.3361 13.3052 40.3959C13.3124 40.4913 13.3195 40.5853 13.328 40.6807C13.3323 40.7363 13.338 40.7932 13.3437 40.8502L13.3451 40.8687C13.3536 40.9613 13.3636 41.0553 13.375 41.1492C13.3821 41.2062 13.3892 41.2617 13.3949 41.3187L13.3991 41.3486C13.4105 41.4398 13.4233 41.5338 13.4361 41.6263C13.4447 41.6904 13.4546 41.7531 13.4646 41.8171L13.4674 41.8314C13.4816 41.924 13.4959 42.0151 13.5115 42.1077C13.5215 42.1703 13.5343 42.233 13.5457 42.2971L13.5499 42.3227C13.567 42.4138 13.5827 42.505 13.6011 42.5961C13.6125 42.6559 13.6253 42.7157 13.6381 42.777L13.6467 42.8197C13.6666 42.9165 13.6851 43.0034 13.705 43.0903C13.7192 43.1501 13.7334 43.2113 13.7477 43.2726L13.7633 43.3395C13.7832 43.4221 13.8032 43.5061 13.8245 43.5901C13.8416 43.6542 13.8586 43.7197 13.8757 43.7838L13.897 43.8636C13.917 43.9405 13.9383 44.0174 13.9596 44.0943C13.9767 44.1569 13.9952 44.2182 14.0137 44.2808L14.0507 44.4033C14.0706 44.4702 14.0905 44.5386 14.1119 44.6055C14.1318 44.6668 14.1517 44.7294 14.173 44.7921L14.2143 44.9188C14.2356 44.9858 14.2584 45.0541 14.2812 45.121C14.3025 45.1851 14.3267 45.2492 14.3494 45.3147L14.3992 45.4529C14.422 45.5155 14.4433 45.5782 14.4675 45.6423C14.4917 45.7078 14.5187 45.7747 14.5443 45.8416L14.6012 45.9897C14.624 46.0496 14.6468 46.1079 14.6709 46.1678C14.698 46.2361 14.7264 46.303 14.7549 46.3714L14.8217 46.5309C14.8445 46.5864 14.8687 46.6434 14.8929 46.7004C14.9228 46.7687 14.954 46.8371 14.9839 46.9054L15.0607 47.0778C15.0849 47.1304 15.1077 47.1831 15.1319 47.2373C15.1646 47.307 15.1987 47.3782 15.2329 47.4494L15.3197 47.6303C15.3424 47.6787 15.3666 47.7286 15.3908 47.777C15.4292 47.8553 15.4705 47.9336 15.5117 48.0134L15.6028 48.19C15.6255 48.2341 15.6469 48.2768 15.6696 48.321C15.7223 48.4207 15.7763 48.5204 15.8318 48.62L15.9143 48.771C15.9328 48.8038 15.9499 48.8379 15.9684 48.8707C16.068 49.0473 16.1704 49.2253 16.2757 49.4033C16.2785 49.409 16.287 49.4218 16.2913 49.4304C16.3724 49.5671 16.4634 49.7109 16.5772 49.8832C16.6014 49.9202 16.627 49.9573 16.6526 49.9943L16.6754 50.0271C16.7465 50.131 16.8191 50.235 16.8945 50.3375L16.9301 50.3859C16.9542 50.4201 16.9784 50.4543 17.004 50.487C17.1136 50.6323 17.2146 50.7619 17.3127 50.8801C17.3412 50.9143 17.3696 50.947 17.3981 50.9812L17.4607 51.0538C17.5233 51.1279 17.5873 51.2019 17.6527 51.2746C17.7168 51.3458 17.7808 51.4156 17.8462 51.4853C17.8974 51.5409 17.9515 51.5964 18.0055 51.652C19.5263 53.2142 21.5379 54.4745 23.9834 55.3973L23.999 55.403C25.0332 55.7918 26.1528 56.1236 27.3251 56.3842H27.3265C28.2811 56.5978 29.2854 56.7673 30.3097 56.8912L30.3424 56.8955C31.1462 56.9923 31.9784 57.0607 32.8135 57.1005C32.8178 57.1005 32.8277 57.102 32.832 57.102C33.0184 57.1105 33.2175 57.1191 33.4153 57.1247L33.4949 57.1276C33.6898 57.1333 33.8876 57.1376 34.0853 57.1404C34.0981 57.149 34.101 57.149 34.1038 57.149Z" fill="black" stroke="#1B1A19" stroke-width="2" mask="url(#path-1-inside-1_68_991)"/>
<mask id="path-2-inside-2_68_991" fill="white">
<path d="M31.8989 25.8388C31.8989 25.8388 37.8881 25.4286 45.4108 27.448C52.9336 29.4674 58.9697 26.8955 60.6157 25.3432C62.2617 23.7909 66.5608 40.628 58.1916 50.2449C49.8224 59.8618 22.5708 62.7912 15.0708 50.1581C7.57083 37.5249 14.9983 27.0592 18.6928 26.2489"/>
</mask>
<path d="M31.8989 25.8388C31.8989 25.8388 37.8881 25.4286 45.4108 27.448C52.9336 29.4674 58.9697 26.8955 60.6157 25.3432C62.2617 23.7909 66.5608 40.628 58.1916 50.2449C49.8224 59.8618 22.5708 62.7912 15.0708 50.1581C7.57083 37.5249 14.9983 27.0592 18.6928 26.2489" fill="#FAFF00"/>
<path d="M31.8989 25.8388C31.9672 26.8364 31.967 26.8365 31.9669 26.8365C31.9668 26.8365 31.9667 26.8365 31.9667 26.8365C31.9666 26.8365 31.9666 26.8365 31.9667 26.8365C31.9668 26.8365 31.9674 26.8364 31.9683 26.8364C31.9701 26.8363 31.9733 26.836 31.978 26.8358C31.9873 26.8352 32.0023 26.8343 32.0228 26.8332C32.0639 26.8309 32.1272 26.8277 32.2116 26.8243C32.3804 26.8174 32.6336 26.8095 32.9624 26.8062C33.6202 26.7995 34.5799 26.8109 35.7725 26.8842C38.1593 27.031 41.4688 27.4252 45.1516 28.4138L45.6701 26.4822C41.8301 25.4514 38.3837 25.041 35.8952 24.888C34.6501 24.8115 33.6424 24.7992 32.9421 24.8063C32.5919 24.8099 32.3183 24.8183 32.1302 24.8259C32.0362 24.8298 31.9634 24.8334 31.9131 24.8362C31.888 24.8376 31.8684 24.8387 31.8546 24.8396C31.8477 24.84 31.8423 24.8403 31.8382 24.8406C31.8362 24.8407 31.8346 24.8408 31.8333 24.8409C31.8327 24.841 31.8321 24.841 31.8317 24.841C31.8314 24.8411 31.8312 24.8411 31.831 24.8411C31.8308 24.8411 31.8306 24.8411 31.8989 25.8388ZM45.1516 28.4138C49.0828 29.4691 52.6361 29.3272 55.4321 28.7116C58.1919 28.1039 60.3023 27.0133 61.3018 26.0707L59.9296 24.6157C59.2831 25.2254 57.5525 26.1968 55.002 26.7584C52.4878 27.3119 49.2617 27.4463 45.6701 26.4822L45.1516 28.4138ZM61.3018 26.0707C61.2503 26.1193 61.1531 26.1892 61.009 26.2236C60.8613 26.2587 60.728 26.2413 60.6323 26.209C60.4779 26.157 60.4555 26.0815 60.5399 26.1894C60.6919 26.3836 60.9188 26.8213 61.1596 27.5432C61.6286 28.9494 62.0464 31.1151 62.1603 33.6505C62.3891 38.7438 61.3827 45.0548 57.4372 49.5885L58.9459 50.9014C63.3697 45.8182 64.3983 38.9021 64.1583 33.5607C64.0378 30.8788 63.5954 28.5252 63.0569 26.9105C62.7939 26.122 62.4803 25.4238 62.1149 24.9568C61.9405 24.734 61.6652 24.4466 61.2711 24.3138C61.0555 24.2411 60.8056 24.2161 60.5456 24.278C60.2892 24.339 60.084 24.4701 59.9296 24.6157L61.3018 26.0707ZM57.4372 49.5885C55.4928 51.8228 52.3872 53.732 48.6297 55.1276C44.8849 56.5185 40.5639 57.3724 36.2649 57.5461C27.5733 57.8972 19.3893 55.4734 15.9307 49.6476L14.211 50.6686C18.2523 57.4759 27.4441 59.904 36.3456 59.5445C40.8431 59.3628 45.373 58.4708 49.3261 57.0025C53.2665 55.5389 56.7058 53.4755 58.9459 50.9014L57.4372 49.5885ZM15.9307 49.6476C12.3302 43.5827 12.3405 38.106 13.6359 34.0759C14.2873 32.0493 15.2643 30.3872 16.2755 29.1977C17.3147 27.9751 18.2945 27.36 18.907 27.2257L18.4786 25.2721C17.2438 25.543 15.9097 26.5399 14.7516 27.9024C13.5654 29.2979 12.4616 31.1936 11.7318 33.4639C10.2649 38.0276 10.3115 44.1002 14.211 50.6686L15.9307 49.6476Z" fill="#1B1A19" mask="url(#path-2-inside-2_68_991)"/>
<path d="M36.3572 56.6152C36.9274 56.5923 37.3403 56.6025 37.5867 56.6515C37.65 56.6641 37.7319 56.6847 37.8113 56.7233C37.8668 56.7503 38.059 56.851 38.1185 57.0904C38.1869 57.3656 38.0232 57.5549 37.9609 57.6149C37.8889 57.6841 37.8086 57.7274 37.7565 57.7526C37.5509 57.852 37.2111 57.9345 36.8276 58.0011C36.7763 58.01 36.7233 58.0188 36.6687 58.0274C38.2157 57.9507 39.7659 57.7874 41.2927 57.543C48.2276 56.4328 54.5457 53.6717 57.813 49.9167L57.813 49.9167C61.878 45.2456 62.8904 38.7834 62.6589 33.628C62.5435 31.056 62.1195 28.8434 61.6331 27.3851C61.3868 26.6465 61.1381 26.1437 60.9327 25.8813C60.9042 25.845 60.8797 25.8173 60.8593 25.7962C60.7002 25.9363 60.5152 26.0784 60.3115 26.22C60.2707 26.2711 60.2294 26.3226 60.1878 26.3742C60.3062 26.4003 60.4125 26.4685 60.4856 26.5685C60.5551 26.6637 60.5731 26.758 60.5788 26.8049C60.5897 26.8937 60.5737 26.9646 60.5696 26.983L60.5695 26.9836C60.5629 27.0129 60.555 27.0374 60.5495 27.0532C60.5168 27.1476 60.4349 27.3115 60.2996 27.5656C60.1927 27.7664 60.0412 28.0437 59.8299 28.4229C59.842 28.4162 59.854 28.4095 59.8659 28.403C60.0286 28.3136 60.1888 28.2359 60.335 28.1844C60.4529 28.1428 60.6676 28.0775 60.8842 28.1359C61.0182 28.172 61.1596 28.2581 61.2498 28.4136C61.3321 28.5556 61.3391 28.6999 61.3309 28.799C61.3155 28.9849 61.2322 29.1735 61.145 29.3369M61.145 29.3369L60.7226 29.1114M61.145 29.3369C61.145 29.3368 61.1451 29.3366 61.1452 29.3364L60.7226 29.1114M61.145 29.3369C60.9107 29.7765 60.3612 30.3441 59.6377 30.8979C58.8975 31.4646 57.9251 32.0551 56.7907 32.522C54.5225 33.4555 51.5673 33.9088 48.5302 32.6312C45.6666 31.4265 43.7899 30.8703 41.8232 30.7948C39.8438 30.7187 37.7347 31.1272 34.3924 31.9371C30.9985 32.7595 28.4822 32.7641 26.7983 32.554C25.9569 32.449 25.3253 32.2907 24.8978 32.1553C24.6841 32.0877 24.5216 32.0258 24.4096 31.9794C24.3536 31.9561 24.3102 31.9367 24.2793 31.9224C24.2639 31.9152 24.2516 31.9093 24.2424 31.9049L24.231 31.8992L24.227 31.8972L24.2255 31.8964L24.2248 31.8961C24.2245 31.8959 24.2243 31.8958 24.453 31.4511C24.453 31.4511 27.5983 33.0689 34.2747 31.4511C40.951 29.8334 42.9625 29.7465 48.7241 32.1703C54.4619 34.5841 59.9273 30.5082 60.6946 29.1185C60.7076 29.1146 60.7162 29.1125 60.7209 29.1116C60.7215 29.1115 60.7221 29.1114 60.7226 29.1114M60.7226 29.1114C60.7226 29.1114 60.7226 29.1114 60.7226 29.1114M60.7226 29.1114L60.7224 29.1113C60.7224 29.1113 60.7225 29.1113 60.7225 29.1113L60.7226 29.1114M20.9504 54.6915C21.5088 55.0837 22.1745 55.5324 22.8514 55.9444C22.416 55.76 21.9913 55.5631 21.5784 55.3534C21.3524 55.2175 21.1401 54.9792 20.9504 54.6915ZM30.471 57.8489C29.0569 57.6893 27.6783 57.4448 26.3582 57.1106C26.4438 57.0068 26.4855 56.8775 26.4832 56.7493C26.4807 56.6083 26.4268 56.4979 26.3938 56.4392C26.3239 56.3153 26.2149 56.1971 26.1073 56.0935C25.8804 55.8748 25.5196 55.5899 25.0273 55.2424C24.9178 55.1651 24.819 55.0904 24.7306 55.0191C24.7697 55.0366 24.8101 55.0552 24.8519 55.0748C25.4402 55.3518 26.2532 55.823 27.3144 56.5551C28.2358 57.1907 29.3424 57.5973 30.471 57.8489Z" fill="#DCC600" stroke="#1B1A19"/>
<path d="M33.7016 26.9382C33.8363 26.9376 33.9908 26.9376 34.1636 26.9388C34.8535 26.9437 35.8355 26.9675 37.0082 27.0432C39.3505 27.1945 42.4672 27.5539 45.5404 28.3896L33.7016 26.9382ZM33.7016 26.9382C33.761 26.7092 33.8308 26.5003 33.9093 26.31C36.2528 26.3491 40.4459 26.6327 45.2797 27.9309L45.28 27.931C46.6255 28.2915 47.9243 28.5086 49.1612 28.6129C47.9899 28.7611 46.7658 28.7222 45.5406 28.3896L33.7016 26.9382ZM16.5144 50.8339L16.5144 50.8339L15.9401 50.5913C15.9206 50.5628 15.9012 50.5343 15.8819 50.5056C15.9251 50.4894 15.9692 50.4659 16.0131 50.4332C16.193 50.299 16.2189 50.1045 16.2241 50.0651L16.2243 50.0638C16.2335 49.9949 16.2306 49.931 16.2271 49.8879C16.2199 49.7976 16.2011 49.6933 16.1797 49.5916C16.136 49.3835 16.0642 49.1055 15.9841 48.7998C15.9726 48.7558 15.9608 48.711 15.9489 48.6655C15.8191 48.1711 15.6683 47.5968 15.5481 47.0347C15.8135 47.7652 16.1472 48.6025 16.5756 49.3966C16.9764 50.1398 17.4719 50.8678 18.092 51.4385C17.8035 51.3394 17.5112 51.2304 17.2554 51.1315C17.0408 51.0486 16.8549 50.9739 16.7228 50.92C16.6568 50.8931 16.6043 50.8714 16.5685 50.8565L16.5278 50.8395L16.5175 50.8352L16.5151 50.8342L16.5145 50.8339L16.5144 50.8339ZM16.0054 49.6516L16.0054 49.6516C16.0052 49.6513 16.0059 49.6521 16.0056 49.6517L16.0056 49.6517C16.0055 49.6517 16.0055 49.6516 16.0054 49.6516ZM13.0214 44.1542C12.5031 42.25 12.3072 40.44 12.3483 38.7567C12.3814 39.1558 12.4186 39.5684 12.4603 39.9895C12.5942 41.3403 12.7757 42.7848 13.0214 44.1542Z" fill="white" stroke="#1B1A19"/>
<path d="M36.6995 16.528C36.6995 24.5941 30.1676 31.132 22.1113 31.132C14.0549 31.132 7.52307 24.5941 7.52307 16.528C7.52307 8.46201 14.0549 1.92409 22.1113 1.92409C30.1676 1.92409 36.6995 8.46201 36.6995 16.528Z" fill="#FAFF00" stroke="#1B1A19"/>
<mask id="path-7-inside-3_68_991" fill="white">
<path d="M7.02307 16.5281C7.02307 16.914 7.0373 17.2956 7.06575 17.6744C7.0686 17.6531 8.12844 7.69439 15.6654 3.93477C23.211 0.170887 29.772 3.51324 29.772 3.51324C27.5272 2.18598 24.9081 1.42409 22.1113 1.42409C13.779 1.42409 7.02307 8.1857 7.02307 16.5281Z"/>
</mask>
<path d="M7.02307 16.5281C7.02307 16.914 7.0373 17.2956 7.06575 17.6744C7.0686 17.6531 8.12844 7.69439 15.6654 3.93477C23.211 0.170887 29.772 3.51324 29.772 3.51324C27.5272 2.18598 24.9081 1.42409 22.1113 1.42409C13.779 1.42409 7.02307 8.1857 7.02307 16.5281Z" fill="white"/>
<path d="M7.06575 17.6744L6.06856 17.7493L8.057 17.8065L7.06575 17.6744ZM15.6654 3.93477L16.1118 4.82962L16.1118 4.82962L15.6654 3.93477ZM29.772 3.51324L29.3181 4.40428L30.281 2.65244L29.772 3.51324ZM22.1113 1.42409V2.42409V1.42409ZM6.02307 16.5281C6.02307 16.9386 6.03821 17.3453 6.06856 17.7493L8.06294 17.5996C8.03639 17.246 8.02307 16.8893 8.02307 16.5281H6.02307ZM8.057 17.8065C8.05816 17.7977 8.12023 17.2102 8.3277 16.2608C8.53611 15.3072 8.88913 14 9.46631 12.5839C10.6279 9.73418 12.6492 6.55686 16.1118 4.82962L15.2191 3.03992C11.1447 5.0723 8.86758 8.75414 7.61426 11.829C6.984 13.3752 6.60046 14.7967 6.37382 15.8338C6.2603 16.3532 6.18564 16.7786 6.13892 17.0779C6.09272 17.3738 6.07173 17.5633 6.0745 17.5424L8.057 17.8065ZM16.1118 4.82962C19.6642 3.05759 22.9774 2.95916 25.4084 3.30271C26.6254 3.4747 27.6179 3.75729 28.3009 3.99447C28.642 4.11293 28.9047 4.21961 29.0781 4.29468C29.1648 4.3322 29.229 4.36176 29.2695 4.38088C29.2898 4.39044 29.304 4.39737 29.3122 4.40138C29.3163 4.40338 29.3188 4.40465 29.3198 4.40515C29.3203 4.4054 29.3204 4.40546 29.3201 4.40531C29.32 4.40524 29.3198 4.40512 29.3194 4.40495C29.3193 4.40486 29.3189 4.4047 29.3188 4.40465C29.3185 4.40448 29.3181 4.40428 29.772 3.51324C30.226 2.6222 30.2255 2.62198 30.2251 2.62175C30.2249 2.62166 30.2244 2.62141 30.224 2.62123C30.2233 2.62085 30.2225 2.62043 30.2215 2.61995C30.2196 2.61901 30.2174 2.61786 30.2147 2.61651C30.2093 2.61383 30.2023 2.61036 30.1938 2.60615C30.1766 2.59774 30.1532 2.58637 30.1235 2.57237C30.0642 2.54436 29.9801 2.50579 29.8726 2.45927C29.6578 2.36626 29.3489 2.24123 28.957 2.10514C28.174 1.83326 27.0547 1.5155 25.6882 1.32239C22.9523 0.935734 19.2122 1.04807 15.2191 3.03992L16.1118 4.82962ZM30.281 2.65244C27.8862 1.23658 25.0921 0.424091 22.1113 0.424091V2.42409C24.7242 2.42409 27.1681 3.13538 29.2631 4.37404L30.281 2.65244ZM22.1113 0.424091C13.2258 0.424091 6.02307 7.63434 6.02307 16.5281H8.02307C8.02307 8.73706 14.3323 2.42409 22.1113 2.42409V0.424091Z" fill="#1B1A19" mask="url(#path-7-inside-3_68_991)"/>
<path d="M15.8861 26.0643L15.8863 26.0639C15.9795 25.9018 16.1425 25.6663 16.3245 25.4034C16.3627 25.3482 16.4018 25.2918 16.4412 25.2347C16.6779 24.8912 16.9513 24.487 17.2124 24.0515C17.7483 23.1577 18.1773 22.219 18.1929 21.4608L18.6928 21.4711L18.1929 21.4608C18.1932 21.4466 18.1934 21.4327 18.1937 21.4191C18.0185 21.4639 17.8067 21.4911 17.556 21.4713C17.1122 21.4362 16.5928 21.2575 15.9741 20.8507C14.9765 20.195 13.813 20.1138 12.6003 20.2009C12.1806 20.231 11.7751 20.2792 11.3714 20.3272C11.1867 20.3491 11.0023 20.371 10.8172 20.3911C10.2462 20.4531 9.67144 20.4973 9.15329 20.4416M15.8861 26.0643L9.20679 19.9445M15.8861 26.0643C15.6837 26.4172 15.7151 26.8403 15.9072 27.2069C16.0988 27.5726 16.4527 27.9008 16.9508 28.1589C17.9439 28.6737 19.6047 28.9627 22.1656 28.6827C24.8046 28.3943 28.1361 26.8706 30.6825 24.1802C33.2428 21.4752 35.0181 17.5806 34.4988 12.5702M15.8861 26.0643L7.29907 19.4104C7.33732 19.6085 7.37944 19.8052 7.42534 20.0005C7.61545 20.073 7.80369 20.1373 7.98783 20.1933M9.15329 20.4416L9.20679 19.9445M9.15329 20.4416C9.15338 20.4416 9.15347 20.4416 9.15357 20.4416L9.20679 19.9445M9.15329 20.4416C8.80344 20.4041 8.40622 20.3204 7.98783 20.1933M9.20679 19.9445C8.81715 19.9027 8.34968 19.7953 7.853 19.6239C7.89423 19.8151 7.9392 20.0049 7.98783 20.1933M7.98783 20.1933C9.6123 26.4845 15.3201 31.1306 22.1113 31.1306C30.1683 31.1306 36.6995 24.5919 36.6995 16.5266C36.6995 12.1789 34.8005 8.27481 31.7875 5.59973C33.1208 7.27925 34.185 9.54003 34.4988 12.5702M34.4988 12.5702L34.0015 12.6218M34.4988 12.5702L34.0015 12.6218M34.0015 12.6218C35.0073 22.3255 27.1402 27.636 22.1113 28.1857C17.0824 28.7354 15.9229 27.0051 16.3198 26.313L29.1013 3.70756C31.3213 5.34148 33.5315 8.08403 34.0015 12.6218ZM18.6963 21.2202C18.6963 21.2198 18.6963 21.2195 18.6963 21.2191L18.6963 21.2202Z" fill="#DCC600" stroke="#1B1A19"/>
<path d="M4.62541 21.4908L4.62558 21.4907L4.62584 21.4906L4.62606 21.4904L4.64674 21.4801L4.66712 21.4673L4.4012 21.0439C4.66712 21.4673 4.6672 21.4672 4.66729 21.4672L4.66751 21.467L4.66811 21.4667L4.66994 21.4655L4.67601 21.4617L4.69769 21.4478C4.7163 21.4358 4.74309 21.4184 4.77741 21.3957C4.84603 21.3503 4.94478 21.2838 5.06827 21.1972C5.31512 21.0243 5.66145 20.7711 6.06388 20.4472C6.86676 19.8009 7.90254 18.8655 8.81697 17.7167C9.25473 17.1667 9.64113 16.7188 10.0027 16.3776C10.3654 16.0353 10.6799 15.8229 10.9688 15.7164C11.477 15.5293 12.0638 15.6164 12.9742 16.4141C13.6737 17.0275 14.2589 17.6876 14.8134 18.3131C15.0106 18.5357 15.2041 18.7539 15.3974 18.9641C15.7565 19.3545 16.1188 19.7197 16.4929 20.0008C16.868 20.2826 17.2837 20.502 17.7505 20.5628C18.0198 20.5978 18.1081 20.6789 18.1377 20.7175C18.1692 20.7587 18.2086 20.8493 18.1865 21.049C18.1396 21.4725 17.8489 22.0895 17.396 22.7846C16.6065 23.9966 13.8176 26.032 8.32523 25.7921L8.3251 25.7921C5.56348 25.6722 3.91501 25.0873 3.09525 24.4668C2.68821 24.1586 2.5197 23.8692 2.47348 23.6546C2.43082 23.4566 2.47862 23.2657 2.64003 23.0846C3.12705 22.541 3.62931 22.1389 4.00951 21.8733C4.19921 21.7408 4.35727 21.6431 4.46606 21.5794C4.52042 21.5476 4.56235 21.5244 4.58965 21.5097C4.60329 21.5023 4.61327 21.4971 4.61929 21.4939L4.62522 21.4909L4.62533 21.4908L4.62541 21.4908Z" fill="#FFE600" stroke="#1B1A19"/>
<path d="M7.7796 26.1453C9.20196 26.1711 10.8978 25.9741 12.5927 25.2435C13.1136 25.0191 13.5534 24.8136 13.9245 24.6267L7.7796 26.1453ZM7.7796 26.1453C7.78548 26.145 7.79136 26.1447 7.79725 26.1444C9.31284 26.0645 11.1112 25.8225 12.5623 25.173C12.5623 25.173 12.5623 25.173 12.5623 25.173C12.9861 24.9834 13.3802 24.759 13.729 24.4937L7.7796 26.1453ZM17.7502 20.5641L17.7506 20.5642C18.0199 20.5992 18.1082 20.6803 18.1378 20.719C18.1694 20.7602 18.2089 20.8509 18.1868 21.0508C18.14 21.4745 17.8496 22.0917 17.3975 22.7875C17.1728 23.1327 16.7853 23.5461 16.2164 23.955C16.2561 23.8978 16.2923 23.8376 16.3219 23.7749C16.3829 23.6458 16.4476 23.438 16.3712 23.2097L16.1986 21.5681L15.4315 23.0368C15.4315 23.0368 15.4315 23.0368 15.4313 23.037C15.4273 23.0434 15.3265 23.2028 14.8763 23.5075C14.8288 23.5397 14.7779 23.5732 14.7232 23.608C15.5184 22.7559 15.8722 21.8886 15.8783 20.9658C15.8827 20.3165 15.7117 19.6704 15.4539 19.0262C15.7943 19.3932 16.138 19.735 16.4923 20.0013C16.8675 20.2834 17.2832 20.503 17.7502 20.5641Z" fill="#F1F516" stroke="#1B1A19"/>
<path d="M35.815 33.9909L35.7722 33.9937C33.6926 34.1283 31.5646 35.3471 29.9332 37.1333C28.3033 38.918 27.2283 41.2054 27.1849 43.3905L35.815 33.9909ZM35.815 33.9909L35.8563 33.981M35.815 33.9909L35.8563 33.981M35.8563 33.981L35.8564 33.981M35.8563 33.981L35.8564 33.981M35.8564 33.981L35.8565 33.981M35.8564 33.981L35.8565 33.981M35.8565 33.981L35.8567 33.9809M35.8565 33.981L35.8567 33.9809M35.8567 33.9809L35.8577 33.9807L35.8652 33.9789L35.8996 33.9712C35.9309 33.9644 35.9788 33.9542 36.0423 33.9417C36.1692 33.9166 36.3582 33.8823 36.6006 33.8464C37.0855 33.7745 37.7826 33.6966 38.6224 33.6743C40.3053 33.6297 42.543 33.809 44.7942 34.6921C47.1316 35.6098 49.006 36.2233 50.5641 36.4495C52.1358 36.6776 53.4264 36.5175 54.5595 35.8477L54.5597 35.8475C54.7803 35.717 54.9231 35.6737 55.0032 35.6654C55.0395 35.6616 55.0557 35.6657 55.0588 35.6667C55.0606 35.6672 55.0624 35.6675 55.0677 35.6722C55.0836 35.6861 55.1336 35.7436 55.1805 35.909C55.2262 36.0703 55.2577 36.2948 55.2683 36.5909C55.3117 37.7965 55.0044 39.7983 54.544 42.3787C54.0957 44.8915 53.1852 47.5415 51.1743 49.671C49.1713 51.7922 46.0254 53.4507 41 53.8895C36.0122 54.325 32.5475 52.7832 30.3395 50.614C28.116 48.4297 27.1422 45.5867 27.1849 43.3907L35.8567 33.9809Z" fill="#FAFF00" stroke="#1B1A19"/>
<path d="M37.8604 53.1313C39.0447 53.0726 40.4277 52.8763 41.9979 52.4507C42.71 52.2577 43.2607 52.0971 43.6749 51.962C44.0799 51.8299 44.3837 51.713 44.5823 51.6025C44.6721 51.5525 44.8014 51.4717 44.8929 51.3465C44.9438 51.2768 45.0014 51.1683 45.0079 51.027C45.0149 50.8775 44.962 50.7515 44.894 50.6609C44.7819 50.5116 44.6211 50.4471 44.5506 50.4207C44.4576 50.386 44.3539 50.3604 44.2553 50.34C44.0573 50.2992 43.8072 50.2652 43.5541 50.2317C43.5304 50.2286 43.5065 50.2254 43.4825 50.2223C43.2436 50.1907 42.9943 50.1577 42.7472 50.1171C42.5018 50.0768 42.2689 50.0305 42.0634 49.9743C42.0637 49.9743 42.064 49.9742 42.0642 49.9742C43.1062 49.7751 44.8382 49.3956 46.8744 48.2105C48.9152 47.0228 50.0938 45.6585 50.7634 44.5739C51.0975 44.0329 51.3033 43.5641 51.4267 43.2249C51.4884 43.0554 51.5295 42.9182 51.5557 42.8205C51.5688 42.7716 51.5782 42.7326 51.5846 42.7043C51.5878 42.6902 51.5903 42.6788 51.592 42.6701L51.5942 42.6592L51.595 42.6554L51.5953 42.6539L51.5954 42.6532C51.5955 42.6529 51.5955 42.6526 51.1041 42.5605L51.5955 42.6526L50.7087 42.2551C50.7084 42.2549 50.7084 42.2549 50.7084 42.2548L50.7084 42.2549L50.7083 42.2549L50.7079 42.2555L50.7052 42.2589L50.6934 42.274C50.6828 42.2875 50.6665 42.308 50.6453 42.3345C50.6027 42.3875 50.5399 42.4644 50.4606 42.5582C50.3862 42.6463 50.2976 42.7488 50.1979 42.86C50.7345 42.1413 51.2869 41.3163 51.6525 40.4882L51.6526 40.488C51.8015 40.1506 51.8928 39.8405 51.899 39.5618C51.9055 39.2653 51.8134 38.981 51.5794 38.7767C51.3666 38.5909 51.1022 38.5308 50.8862 38.512C50.6637 38.4927 50.4252 38.5117 50.2022 38.5418C50.0715 38.5594 49.9377 38.5821 49.8062 38.6063C49.8942 38.5014 49.9673 38.3693 49.9989 38.2076C50.0406 37.994 49.9988 37.7858 49.9152 37.5972C49.8781 37.5134 49.8305 37.44 49.7762 37.3756C49.9129 37.3803 50.0507 37.3827 50.1893 37.3827C52.3022 37.3827 53.4961 37.0759 54.1925 36.8558C54.2773 36.829 54.3537 36.8038 54.4208 36.7816L54.4338 36.7773C54.4576 36.7694 54.4799 36.7621 54.5009 36.7552C54.7139 38.0461 55.1697 43.9289 50.3672 49.2536C47.8318 52.0645 44.2963 53.1716 41.0024 53.3002C39.9003 53.3432 38.8375 53.2764 37.8604 53.1313ZM54.4495 36.5118C54.4495 36.5118 54.4501 36.513 54.4511 36.5158C54.45 36.5133 54.4495 36.5119 54.4495 36.5118ZM48.4775 38.7973C48.4776 38.7971 48.4801 38.7976 48.4843 38.7991C48.4794 38.7981 48.4773 38.7974 48.4775 38.7973ZM48.5103 39.2488C48.508 39.2506 48.5067 39.2514 48.5066 39.2514C48.5065 39.2514 48.5077 39.2505 48.5103 39.2488ZM44.2137 51.3632C44.2134 51.3633 44.2097 51.3618 44.2034 51.3585C44.2109 51.3614 44.214 51.3631 44.2137 51.3632Z" fill="#DCC600" stroke="#1B1A19"/>
<path d="M34.7631 35.1191C34.3389 35.2758 33.9254 35.4595 33.5387 35.6753C32.6044 36.1964 31.7874 36.9265 31.3877 37.9494L34.7631 35.1191ZM34.7631 35.1191C33.4099 35.2987 32.3077 35.6496 31.4077 36.1665C29.5123 37.2549 28.4162 39.1385 27.8145 42.0122C27.3484 44.2384 27.7691 46.0039 28.4405 47.326C28.4459 47.2144 28.4587 47.1061 28.4791 47.0017C28.5948 46.407 28.9679 45.9163 29.5879 45.7561C30.17 45.6057 30.8527 45.7789 31.5604 46.2012C31.5729 46.2087 31.5854 46.2162 31.5979 46.2236C31.3643 45.9986 31.1047 45.7456 30.8165 45.4613M34.7631 35.1191L30.8165 45.4613M30.8165 45.4613C30.2814 44.9339 29.8927 44.4491 29.6408 44.034C29.515 43.8266 29.418 43.6278 29.3557 43.4427C29.2959 43.2648 29.2556 43.0629 29.284 42.8648C29.3154 42.6464 29.4378 42.4151 29.6945 42.2981C29.9178 42.1962 30.1499 42.2258 30.3222 42.2754C30.6707 42.3757 31.0735 42.6434 31.5028 43.0311C31.9428 43.4286 32.3146 43.6457 32.6111 43.7613C32.3764 43.4868 32.1222 43.1518 31.8874 42.7639C31.1775 41.5912 30.6261 39.8963 31.3876 37.9496L30.8165 45.4613Z" fill="white" stroke="#1B1A19"/>
<path d="M22.9727 15.0142C22.9727 16.0599 22.1261 16.9067 21.0827 16.9067C20.0394 16.9067 19.1927 16.0599 19.1927 15.0142C19.1927 13.9686 20.0394 13.1218 21.0827 13.1218C22.1261 13.1218 22.9727 13.9686 22.9727 15.0142Z" fill="#E59A08" stroke="#1B1A19"/>
<path d="M22.9407 14.6654C22.9617 14.7784 22.9727 14.895 22.9727 15.0142C22.9727 16.0601 22.1263 16.9067 21.0827 16.9067C20.8519 16.9067 20.6307 16.8653 20.4262 16.7895C20.5278 16.8022 20.6329 16.8087 20.7413 16.8087C21.4504 16.8087 22.0158 16.5272 22.397 16.0829C22.7416 15.6811 22.9164 15.1699 22.9407 14.6654Z" fill="#E59A08" stroke="#1B1A19"/>
<path d="M20.9924 13.9035C20.9924 14.0997 20.8336 14.2579 20.6388 14.2579C20.4441 14.2579 20.2853 14.0997 20.2853 13.9035C20.2853 13.7072 20.4441 13.549 20.6388 13.549C20.8336 13.549 20.9924 13.7072 20.9924 13.9035Z" fill="white" stroke="#1B1A19"/>
<path d="M102.822 23.4938V23.9938H103.322H105.723H106.223V23.4938V17.2479L108.168 15.0572L114.695 23.7931L114.845 23.9938H115.095H118H119.012L118.397 23.1902L110.327 12.6309L118.366 3.98397L119.148 3.14351H118H114.863H114.641L114.492 3.3081L106.223 12.4499V3.64351V3.14351H105.723H103.322H102.822V3.64351V23.4938Z" fill="#371F1F" stroke="#1B1A19"/>
<path d="M94.4374 23.8039C95.3747 23.4956 96.2235 23.0455 96.9804 22.4531L96.9826 22.4513C97.7417 21.8503 98.3755 21.1221 98.8833 20.2702C99.395 19.412 99.7435 18.446 99.9337 17.3783L100.038 16.7906H99.4414H97.0402H96.6332L96.5506 17.1891C96.4204 17.817 96.1951 18.3632 95.8793 18.8345L95.8785 18.8357C95.563 19.3094 95.1791 19.708 94.7255 20.0342C94.2751 20.3561 93.7736 20.6003 93.218 20.766C92.6594 20.9326 92.0751 21.0166 91.4631 21.0166C90.3518 21.0166 89.3568 20.7369 88.4653 20.1815C87.5883 19.6312 86.8759 18.8136 86.3363 17.7031C85.8094 16.6059 85.534 15.2343 85.534 13.5687C85.534 11.903 85.8094 10.5314 86.3363 9.43421C86.8759 8.32381 87.5882 7.50617 88.4652 6.95583C89.3567 6.40045 90.3518 6.12079 91.4631 6.12079C92.0751 6.12079 92.6594 6.20477 93.218 6.37133C93.7721 6.53654 94.2725 6.7831 94.7223 7.11058L94.7223 7.11062L94.7282 7.11484C95.1803 7.43397 95.5634 7.82851 95.8785 8.30169L95.8785 8.3017L95.8809 8.30522C96.1949 8.76819 96.4201 9.3129 96.5504 9.94733L96.6325 10.3467H97.0402H99.4414H100.038L94.2807 23.3291M94.4374 23.8039C94.4373 23.8039 94.4371 23.804 94.4369 23.804L94.2807 23.3291M94.4374 23.8039C94.4376 23.8038 94.4378 23.8038 94.4379 23.8037L94.2807 23.3291M94.4374 23.8039C93.505 24.1126 92.5125 24.2652 91.4631 24.2652C89.6864 24.2652 88.0886 23.8295 86.6852 22.948C85.2829 22.0672 84.1872 20.818 83.395 19.2184C82.5986 17.6104 82.2102 15.7218 82.2102 13.5687C82.2102 11.4155 82.5986 9.52695 83.395 7.91895C84.1872 6.31937 85.2829 5.07011 86.6852 4.18936C88.0886 3.30785 89.6864 2.87212 91.4631 2.87212C92.5125 2.87212 93.5049 3.02468 94.4373 3.33345M94.2807 23.3291C93.4028 23.6198 92.4636 23.7652 91.4631 23.7652C89.7719 23.7652 88.2679 23.3517 86.9511 22.5246C85.6343 21.6975 84.5983 20.5215 83.8431 18.9965C83.0878 17.4715 82.7102 15.6623 82.7102 13.5687C82.7102 11.4751 83.0878 9.66581 83.8431 8.14085C84.5983 6.61589 85.6343 5.43986 86.9511 4.61277C88.2679 3.78567 89.7719 3.37212 91.4631 3.37212C92.4636 3.37212 93.4028 3.51751 94.2807 3.80829M94.4373 3.33345C94.4372 3.3334 94.437 3.33335 94.4369 3.3333L94.2807 3.80829M94.4373 3.33345C94.4375 3.33351 94.4377 3.33358 94.4379 3.33364L94.2807 3.80829M94.4373 3.33345L94.2807 3.80829M99.4414 17.2906C99.4112 17.4603 99.3768 17.6269 99.3383 17.7906H99.4414V17.2906ZM99.4414 17.2906L98.9492 17.2029C98.944 17.2322 98.9386 17.2615 98.9331 17.2906H99.4414ZM99.4414 9.84674H98.9332C98.9387 9.87568 98.9439 9.90474 98.9491 9.9339L99.4414 9.84674ZM99.4414 9.84674V9.34674H99.3389C99.3772 9.51028 99.4114 9.67694 99.4414 9.84674ZM96.9815 4.69482C96.9812 4.69453 96.9808 4.69424 96.9804 4.69395L96.6723 5.0877L96.9826 4.69569C96.9823 4.6954 96.9819 4.69511 96.9815 4.69482ZM98.8829 6.86634C98.8827 6.86608 98.8825 6.86583 98.8824 6.86557L98.4538 7.12313L98.8833 6.8671C98.8832 6.86685 98.883 6.86659 98.8829 6.86634Z" fill="#371F1F" stroke="#1B1A19"/>
<path d="M75.7882 3.14351H76.2882H78.6895H79.1895V3.64351V16.7866C79.1895 18.2255 78.8496 19.5275 78.1598 20.6784M75.7882 3.14351L77.7309 20.4213M75.7882 3.14351V3.64351V16.5927C75.7882 17.4863 75.5926 18.2626 75.2136 18.9352L75.2129 18.9364C74.842 19.599 74.306 20.1244 73.5908 20.5147M75.7882 3.14351L75.6492 19.1807M78.1598 20.6784L77.7309 20.4213M78.1598 20.6784C78.1599 20.6781 78.1601 20.6778 78.1602 20.6776L77.7309 20.4213M78.1598 20.6784C77.4776 21.8209 76.5142 22.7194 75.2834 23.3732L75.2815 23.3742C74.0418 24.026 72.6035 24.3428 70.9822 24.3428C69.361 24.3428 67.9227 24.026 66.683 23.3742L66.681 23.3732C65.4504 22.7194 64.4842 21.8212 63.7957 20.6795L63.7939 20.6764C63.1112 19.5258 62.775 18.2246 62.775 16.7866V3.64351V3.14351H63.275H65.6763H66.1763V3.64351V16.5927C66.1763 17.4859 66.3717 18.262 66.7505 18.9344M77.7309 20.4213C77.0983 21.481 76.2043 22.3178 75.0489 22.9317C73.8934 23.5391 72.5379 23.8428 70.9822 23.8428C69.4266 23.8428 68.0711 23.5391 66.9156 22.9317C65.7602 22.3178 64.8629 21.481 64.2239 20.4213C63.5913 19.3551 63.275 18.1436 63.275 16.7866V4.14351V3.64351H63.775H65.1763H65.6763V4.14351V16.5927C65.6763 17.562 65.8893 18.4246 66.3153 19.1807M66.7505 18.9344C66.7503 18.9342 66.7502 18.9339 66.75 18.9336L66.3153 19.1807M66.7505 18.9344C66.7506 18.9347 66.7508 18.9349 66.7509 18.9352L66.3153 19.1807M66.7505 18.9344C67.1284 19.5991 67.6657 20.125 68.3744 20.5151M66.3153 19.1807C66.7413 19.9302 67.3481 20.5215 68.1356 20.9544M68.1356 20.9544L68.3722 20.5139C68.3729 20.5143 68.3737 20.5147 68.3744 20.5151M68.1356 20.9544C68.9296 21.3809 69.8784 21.5941 70.9822 21.5941C72.086 21.5941 73.0349 21.3809 73.8289 20.9544M68.1356 20.9544L68.3765 20.5162C68.3758 20.5159 68.3751 20.5155 68.3744 20.5151M68.3744 20.5151C69.0806 20.8939 69.9437 21.0941 70.9822 21.0941C72.0211 21.0941 72.8845 20.8937 73.5908 20.5147M73.8289 20.9544L73.5895 20.5154C73.5899 20.5152 73.5904 20.5149 73.5908 20.5147M73.8289 20.9544C74.6228 20.5215 75.2296 19.9302 75.6492 19.1807M73.8289 20.9544L73.5923 20.5139C73.5918 20.5142 73.5913 20.5144 73.5908 20.5147M75.6492 19.1807C76.0752 18.4246 76.2882 17.562 76.2882 16.5927V4.14351V3.64351L75.6492 19.1807Z" fill="#371F1F" stroke="#1B1A19"/>
<path d="M46.5791 20.8615V21.3615H49.6422C51.2818 21.3615 52.6406 21.0449 53.7185 20.4116C54.7965 19.7784 55.6002 18.877 56.1295 17.7074C56.6588 16.5378 56.9234 15.1453 56.9234 13.5299C56.9234 11.9274 56.662 10.5478 56.1391 9.39119C55.6163 8.22809 54.8352 7.33637 53.796 6.71605C52.7567 6.08926 51.4625 5.77587 49.9133 5.77587H46.5791V6.27587M46.5791 20.8615H49.6422C51.2198 20.8615 52.4844 20.5567 53.4653 19.9805C54.4517 19.401 55.186 18.5794 55.6739 17.5012C56.1674 16.4109 56.4234 15.092 56.4234 13.5299C56.4234 11.9804 56.1705 10.6744 55.6835 9.59714L55.6831 9.59619C55.1999 8.52126 54.4861 7.71026 53.5397 7.14538L53.5378 7.14421C52.5953 6.57576 51.3963 6.27587 49.9133 6.27587H46.5791M46.5791 20.8615H46.0791V6.27587H46.5791M46.5791 20.8615V6.27587M43.1779 23.4938V23.9938H43.6779H49.7972C51.8763 23.9938 53.6762 23.5834 55.1747 22.737L55.1762 22.7362C56.6722 21.8843 57.8125 20.6655 58.5915 19.0924L58.5919 19.0916C59.3689 17.5155 59.7472 15.6561 59.7472 13.5299C59.7472 11.4172 59.3723 9.57367 58.6015 8.0165C57.8304 6.45247 56.7145 5.2429 55.2567 4.40289C53.7972 3.55546 52.0607 3.14351 50.0683 3.14351H43.6779H43.1779V3.64351V23.4938Z" fill="#371F1F" stroke="#1B1A19"/>
</svg>
